<?xml version="1.0" encoding="UTF-8" standalone="no"?>
<!-- Created with Inkscape (http://www.inkscape.org/) -->

<svg
   version="1.1"
   id="svg1"
   width="127.86667"
   height="102.41333"
   viewBox="0 0 127.86667 102.41333"
   xmlns="http://www.w3.org/2000/svg"
   xmlns:svg="http://www.w3.org/2000/svg">
  <defs
     id="defs1" />
  <g
     id="g1">
    <g
       id="group-R5">
      <path
         id="path2"
         d="m 476.078,411.348 c -80.363,1.738 -144.34,68.554 -142.609,148.945 0.847,38.941 16.804,75.219 44.937,102.16 28.137,26.934 65.071,41.301 104,40.457 80.391,-1.734 144.356,-68.558 142.617,-148.945 -0.839,-38.934 -16.796,-75.219 -44.941,-102.156 -28.125,-26.926 -65.059,-41.321 -104.004,-40.461 z M 371.27,669.898 c -30.118,-28.843 -47.207,-67.679 -48.106,-109.378 -1.863,-86.071 66.641,-157.618 152.699,-159.485 41.7,-0.906 81.25,14.485 111.367,43.317 30.118,28.851 47.208,67.699 48.106,109.394 1.855,86.07 -66.641,157.617 -152.715,159.473 -41.683,0.906 -81.215,-14.477 -111.351,-43.321"
         style="fill:#ffffff;fill-opacity:1;fill-rule:nonzero;stroke:none"
         transform="matrix(0.13333333,0,0,-0.13333333,0,102.41333)" />
      <path
         id="path3"
         d="m 474.867,354.785 c -111.566,2.414 -200.375,95.153 -197.953,206.738 1.172,54.04 23.32,104.395 62.363,141.778 39.043,37.394 90.325,57.344 144.36,56.172 54.043,-1.172 104.394,-23.321 141.797,-62.368 37.382,-39.039 57.324,-90.308 56.152,-144.351 v 0 C 679.164,441.176 586.43,352.363 474.867,354.785 Z M 333.379,709.473 c -40.703,-38.973 -63.77,-91.446 -65,-147.77 -2.52,-116.293 90.019,-212.941 206.293,-215.461 116.289,-2.519 212.93,90.047 215.449,206.328 v 0 c 1.231,56.317 -19.57,109.75 -58.516,150.438 -38.984,40.695 -91.464,63.773 -147.792,65 -56.313,1.222 -109.75,-19.559 -150.434,-58.535"
         style="fill:#ffffff;fill-opacity:1;fill-rule:nonzero;stroke:none"
         transform="matrix(0.13333333,0,0,-0.13333333,0,102.41333)" />
      <path
         id="path4"
         d="m 364.543,532.785 c -1.887,1.5 -2.641,4.356 -1.887,7.078 0.891,3.172 3.535,5.352 7.071,5.832 4.519,0.614 8.253,-0.715 10.793,-3.828 4.246,-5.195 4.617,-14.543 0.984,-24.98 -6.621,-19.004 0.437,-29.172 3.777,-32.657 2.668,-2.785 5.871,-4.335 7.754,-3.761 l 0.235,0.062 0.031,0.242 c 0.176,1.18 1.601,4.165 2.519,5.887 l 0.118,0.215 -0.157,0.195 c -5.593,7.149 -7.168,16.485 -4.004,23.809 2.696,6.223 8.282,10.012 15.711,10.676 3.535,0.32 4.934,-0.774 5.051,-1.805 0.137,-1.156 -1.172,-2.566 -3.601,-2.922 -7.922,-1.144 -11.204,-6.617 -11.653,-11.355 -0.39,-4.243 1.328,-7.996 4.102,-8.938 1.504,-0.031 2.683,0.449 3.625,1.391 l 0.125,0.121 -0.02,0.172 c -0.156,2.058 0.774,4.508 2.168,5.683 0.867,0.739 1.856,0.981 2.93,0.707 4.355,-1.093 4.668,-4.437 4.598,-5.828 -0.157,-3.195 -2.45,-6.121 -5.118,-6.523 l -0.222,-0.031 -1.739,-4.95 c -1.972,-5.39 -4.199,-11.504 -3.515,-15.097 0.437,-2.391 1.535,-3.965 3.078,-4.446 1.348,-0.425 2.879,0.098 4.207,1.426 1.797,1.781 2.726,5.656 3.801,10.141 l 0.449,1.847 -0.024,0.082 c -0.73,3.176 -0.195,5.977 1.411,7.317 1.121,0.949 2.656,1.055 4.422,0.301 1.171,-0.496 2,-1.532 2.343,-2.918 0.535,-2.215 -0.254,-4.953 -2.051,-7.141 l -0.078,-0.086 -0.007,-0.117 c -0.188,-2.023 -0.657,-4.18 -1.118,-6.27 -0.664,-3.007 -1.289,-5.855 -1.004,-8.136 0.196,-1.512 1.094,-2.598 2.559,-3.059 1.902,-0.601 4.375,0 5.613,1.375 1.321,1.453 2.539,7.594 3.782,14.289 l 0.886,4.461 -0.152,0.164 c -1.379,1.223 -1.809,3.824 -1.008,6.192 0.801,2.41 2.625,3.898 5,4.089 1.942,0.149 3.301,-0.5 4.055,-1.933 1.433,-2.754 0.222,-7.379 -0.988,-8.84 l -0.118,-0.145 0.059,-0.187 c 1.074,-4.082 0.566,-8.543 0.156,-12.137 -0.332,-2.961 -0.613,-5.519 0.051,-7.086 0.699,-1.636 2.359,-2.828 4.441,-3.175 2.161,-0.364 4.278,0.269 5.547,1.66 1.426,1.59 1.133,4.05 0.813,6.91 -0.293,2.515 -0.617,5.375 0.015,8.453 l 0.024,0.117 -0.051,0.102 c -1.199,2.937 -1.144,5.84 0.156,7.945 0.821,1.324 2.039,2.145 3.36,2.242 2.121,0.176 3.593,-0.242 4.382,-1.211 1.625,-1.984 0.43,-6.078 -0.527,-9.347 l -0.098,-0.329 c 0.344,-4.621 1.145,-11.023 3.04,-16.027 0.593,-1.601 2.246,-2.715 4.121,-2.754 1.957,-0.051 3.597,1.043 4.398,2.918 0.703,1.66 -0.039,5.078 -0.82,8.696 -0.43,1.953 -0.86,3.976 -1.055,5.71 -1.644,3.856 -1.957,6.582 -0.976,8.207 0.585,0.981 1.64,1.54 3.144,1.657 0.898,0.078 2.637,0 3.984,-1.34 1.485,-1.453 2.11,-3.949 1.895,-7.43 0,-0.129 1.406,-5.133 1.406,-5.133 1.055,-3.867 2.129,-7.867 3.496,-10.777 0.43,-1.621 1.739,-2.762 3.282,-2.836 1.582,-0.078 2.968,0.942 3.613,2.656 1.113,3.094 -0.528,6.594 -2.617,11.039 l -1.036,2.2 c -2.148,2.117 -2.89,4.14 -2.246,5.957 0.704,1.953 2.911,3.281 4.629,3.422 1.602,0.121 3.828,-0.04 5.293,-1.559 1.348,-1.426 1.836,-3.828 1.446,-7.125 l -0.02,-0.078 2.012,-6.449 c 0.742,-2.52 1.386,-4.696 2.031,-6.25 0.664,-1.551 2.031,-2.606 3.809,-2.899 1.718,-0.293 3.398,0.211 4.414,1.328 1.328,1.446 0.351,3.446 -0.743,5.75 -0.683,1.43 -1.464,3.047 -1.816,4.754 l -0.019,0.121 -0.098,0.071 c -2.207,2.156 -3.145,4.898 -2.383,7.007 0.527,1.457 1.758,2.325 3.516,2.465 2.207,0.172 3.867,-0.277 4.941,-1.332 1.152,-1.14 1.66,-3.011 1.504,-5.562 l -0.02,-0.09 0.04,-0.09 c 0.585,-1.289 0.937,-2.715 1.289,-4.227 0.507,-2.105 1.035,-4.289 2.265,-6.3 1.114,-1.817 2.617,-2.754 4.199,-2.625 1.836,0.136 3.536,1.601 4.473,3.816 0.645,1.602 -0.449,4.152 -1.641,6.852 -1.191,2.757 -2.441,5.609 -1.562,7.054 0.371,0.618 1.113,0.961 2.285,1.059 5.098,0.402 7.246,-4.215 8.945,-7.926 0.743,-1.582 1.368,-2.953 2.149,-3.699 0.957,-0.918 1.914,-1.356 2.871,-1.328 1.387,0.051 2.48,1.074 3.164,1.847 1.035,1.133 0.43,2.997 -0.156,4.813 -0.801,2.5 -1.192,4.191 0.429,4.941 4.102,1.875 5.645,0.039 7.442,-2.074 1.289,-1.519 2.617,-3.101 4.98,-3.14 11.153,-0.176 20.137,8.203 25.743,15.265 9.628,12.176 14.668,27.363 13.144,33.375 l -0.039,0.149 -0.137,0.078 c -4.14,2.461 -5.097,6.972 -4.199,10.351 0.801,3.039 2.949,5.032 5.469,5.078 3.945,0.071 6.855,-1.296 8.672,-4.078 1.504,-2.289 2.226,-5.511 2.226,-9.496 0,-8.484 -3.32,-20.41 -9.648,-34.121 -15.938,-34.433 -55.41,-50.516 -71.68,-53.445 -78.723,-13.274 -139.379,15.566 -150.668,52.519 -4.785,15.672 -2.668,23.563 0.36,31.778 1.664,4.5 3.39,9.168 3.996,15.359 l 0.07,0.703 -0.625,-0.332 c -3.715,-1.973 -6.926,-2.129 -9.043,-0.418"
         style="fill:#ffffff;fill-opacity:1;fill-rule:nonzero;stroke:none"
         transform="matrix(0.13333333,0,0,-0.13333333,0,102.41333)" />
      <path
         id="path5"
         d="m 535.434,642.766 c -4.766,-0.157 -10.899,-0.743 -11.914,-3.118 -1.836,-4.32 -0.528,-21.132 3.066,-23.242 4.16,-2.429 14.062,-2.32 16.875,0.403 2.187,2.109 3.457,14.285 3.457,20.242 0,1.633 -0.137,2.902 -0.469,3.515 -0.82,1.633 -6.504,2.34 -11.015,2.2 z m -40.02,-3.118 c -2.793,-0.339 -5.254,-2.312 -5.508,-4.414 -0.312,-2.714 -1.152,-3.773 -2.578,-4.785 l -0.723,-0.508 0.86,-0.171 c 7.461,-1.446 9.023,-7.25 10.195,-11.489 0.606,-2.254 1.094,-4.754 2.324,-5.234 2.911,-1.113 8.262,-1.188 11.602,0.09 1.523,0.574 2.285,3.871 2.031,6.054 -0.508,5.829 -2.5,17.782 -2.5,17.782 -0.644,2.492 -3.535,3.304 -5.273,3.371 -1.504,0.047 -4.512,-0.031 -10.43,-0.696 z m -14.551,-37.285 c -0.254,-11.625 3.164,-29.453 6.817,-29.883 3.906,-0.457 3.984,11.016 4.082,15.481 0.234,11.629 -1.934,29.781 -6.231,29.875 -3.672,0.074 -4.57,-10.094 -4.668,-15.473 z m -11.211,73.383 c 1.504,1.16 2.149,2.574 1.953,4.207 -0.566,4.324 1.583,9.461 5.997,10.227 5.586,0.965 15.82,-0.305 17.695,-1.547 2.578,-1.688 3.652,-3.711 3.047,-5.692 -0.977,-2.98 -5.352,-5.207 -10.039,-5.058 -2.969,0.097 -5.215,-0.86 -6.66,-2.832 -4.434,-6.121 0.117,-20.078 1.621,-24.211 0.429,-1.211 1.367,-1.766 2.636,-1.567 -0.039,0 10.996,1.071 10.996,1.071 9.239,0.957 20.723,2.16 30.274,2.344 -0.02,0 0.742,0.332 0.742,0.332 l 0.234,0.683 c -0.195,2.16 -1.484,7.762 -2.031,8.934 l -0.097,0.199 -0.215,0.027 c -2.246,0.2 -6.465,1.567 -8.907,4.508 -1.464,1.742 -2.07,3.813 -1.855,6.137 0.625,3.988 6.328,6.219 11.23,5.976 5.782,0.09 10.352,-1.578 12.207,-4.464 1.465,-2.27 1.329,-5.274 -0.39,-8.907 l -0.039,-0.078 v -0.082 c 0.019,-3.047 1.465,-9.035 2.48,-11.109 0.371,-0.731 1.446,-0.852 1.66,-0.867 l 1.622,-0.098 c 3.046,-0.184 6.855,-0.41 13.906,-2.168 2.109,-0.527 4.16,-3.078 3.886,-6.035 -0.937,-10.071 -2.597,-15.871 -4.882,-23.906 l -2.559,-9.36 c -0.098,-0.367 0.039,-1.004 0.508,-1.18 v 0 c 6.68,-2.402 14.394,-6.472 14.18,-10.019 -0.196,-2.871 -1.075,-3.758 -1.582,-4.031 -0.411,-0.223 -0.879,-0.215 -1.29,0.019 -4.042,2.293 -10.078,3.789 -12.05,4.168 -0.332,0.063 -0.899,-0.281 -0.996,-0.625 -0.723,-2.414 0.195,-5.527 1.25,-9.14 1.191,-4.067 2.558,-8.68 1.894,-13.414 -0.703,-5.168 -2.695,-11.293 -4.16,-15.754 -0.996,-3.059 -1.719,-5.266 -1.699,-6.133 0.039,-2.442 0.097,-2.578 1.484,-3.633 0.996,-0.754 2.852,-2.16 6.152,-5.891 12.012,-13.519 2.168,-32.847 -5,-46.961 -2.519,-4.921 -4.667,-9.179 -5.527,-12.406 -0.547,-2.176 -4.98,-4.707 -10.469,-6.023 -5.429,-1.293 -9.941,-0.977 -11.523,0.812 -0.332,0.371 -0.469,0.848 -0.41,1.414 0.176,1.309 1.328,2.848 3.144,4.117 2.891,2.016 5.821,2.993 10.235,4.477 0.605,0.199 0.996,0.656 1.015,1.203 3.75,19.285 6.25,35.703 1.778,55.996 l -1.035,3.133 c -0.801,2.121 -1.641,4.316 -1.563,7.844 0.02,1.219 0.313,2.91 0.664,4.871 1.172,6.789 2.969,17.062 -1.973,28.734 -1.23,1.879 -3.496,2.614 -5.918,1.969 -2.089,-0.555 -4.277,-2.211 -4.433,-4.656 l -0.098,-1.406 c -0.683,-9.942 -1.445,-21.211 -6.719,-31.661 -2.949,-5.851 0.079,-8.195 3.028,-10.464 l 0.176,-0.133 c 10.605,-8.203 8.847,-26.461 1.601,-40.254 l -1.113,-2.098 c -1.485,-2.707 -3.145,-5.773 -4.551,-9.687 l -0.488,-0.996 c -2.383,-3.547 -7.832,-6.145 -14.61,-6.981 -4.746,-0.578 -8.261,-0.012 -9.16,0.817 -0.39,0.433 -0.547,1.019 -0.449,1.699 0.234,1.738 2.012,3.769 3.652,4.894 2.383,1.61 5.625,3.442 11.602,4.813 0.098,0.019 1.055,0.269 1.348,1.34 7.031,20.281 0.761,39.004 -2.246,44.5 -2.813,5.129 -2.422,7.945 -1.641,13.554 l 0.566,4.063 c 1.153,8.168 3.555,25.176 4.532,36.301 0.039,0.41 -0.313,1.046 -0.918,1.121 -1.934,0.226 -6.661,0.597 -8.516,-0.907 -1.289,-1.046 -1.445,-5.152 -1.66,-10.832 -0.449,-11.171 -1.035,-26.468 -10.508,-28.027 -2.871,-0.469 -5.586,0.305 -8.066,2.289 -6.036,4.832 -10.469,16.988 -11.27,30.965 -0.801,13.777 1.387,30.918 6.426,35.75 l 0.469,0.449 -0.625,0.188 c -1.602,0.468 -2.872,1.933 -3.477,4.031 -0.703,2.512 -0.234,5.266 1.191,6.84 l 0.098,0.113 v 0.141 c 0,1.539 -1.016,4.129 -2.305,7.398 -1.445,3.621 -3.203,8.137 -4.023,12.434 -0.059,0.39 -0.781,0.871 -1.211,0.898 l -3.004,-0.008 c -8.933,-0.164 -27.527,-0.511 -33.965,18.887 -0.468,1.426 0.586,3.27 2.309,4.023 1.973,0.875 3.965,-0.058 5.32,-2.484 1.692,-3.023 6.426,-7.558 10.242,-9.101 4.055,-1.641 16.02,-1.762 20.875,1.976"
         style="fill:#ffffff;fill-opacity:1;fill-rule:nonzero;stroke:none"
         transform="matrix(0.13333333,0,0,-0.13333333,0,102.41333)" />
      <path
         id="path6"
         d="m 414.082,736.25 -1.016,-8.047 -5.214,-6.219 8.046,-1.027 6.219,-5.203 1.028,8.047 5.195,6.215 -8.035,1.031 -6.223,5.203"
         style="fill:#ffffff;fill-opacity:1;fill-rule:nonzero;stroke:none"
         transform="matrix(0.13333333,0,0,-0.13333333,0,102.41333)" />
      <path
         id="path7"
         d="m 564.594,387.703 -6.543,4.797 -8.106,0.488 4.785,6.563 0.508,8.105 6.524,-4.804 8.086,-0.508 -4.766,-6.543 -0.488,-8.098"
         style="fill:#ffffff;fill-opacity:1;fill-rule:nonzero;stroke:none"
         transform="matrix(0.13333333,0,0,-0.13333333,0,102.41333)" />
      <path
         id="path8"
         d="m 393.313,388.008 6.55,4.765 8.106,0.469 -4.754,6.582 -0.481,8.106 -6.55,-4.793 -8.098,-0.461 4.766,-6.563 0.461,-8.105"
         style="fill:#ffffff;fill-opacity:1;fill-rule:nonzero;stroke:none"
         transform="matrix(0.13333333,0,0,-0.13333333,0,102.41333)" />
      <path
         id="path9"
         d="m 348.523,422.813 8.254,9.683 c 3.758,4.399 9.746,4.086 15.469,-0.785 5.75,-4.914 7.039,-10.801 3.281,-15.207 l -8.242,-9.676 c -1.015,-1.191 -1.055,-1.855 0.293,-3.008 l -2.949,-2.226 -7.949,6.785 1.758,3.234 c 1.359,-1.152 2.011,-1.008 3.015,0.172 l 8.293,9.719 c 1.641,1.93 1.484,4.289 -1.086,6.476 -2.644,2.254 -5.027,2.063 -6.668,0.137 l -8.281,-9.719 c -1.016,-1.191 -1.055,-1.855 0.266,-2.976 l -2.922,-2.246 -7.278,6.199 1.731,3.262 c 1.355,-1.153 2.012,-1.004 3.015,0.176"
         style="fill:#ffffff;fill-opacity:1;fill-rule:nonzero;stroke:none"
         transform="matrix(0.13333333,0,0,-0.13333333,0,102.41333)" />
      <path
         id="path10"
         d="m 322.02,455.059 17.453,13.078 3.281,-4.375 -5.469,-18.449 c -0.383,-1.278 -1.367,-3.301 -1.367,-3.301 0,0 1.57,1.457 2.363,2.047 l 7.688,5.761 c 1.211,0.907 1.453,1.539 0.386,2.965 l 3.34,1.555 5.254,-7.016 -2.398,-2.801 c -1.067,1.426 -1.77,1.395 -2.981,0.497 l -12.824,-9.61 c -1.238,-0.937 -1.433,-1.578 -0.359,-3 l -3.367,-1.515 -4.719,6.293 4.941,16.773 c 0.41,1.312 1.438,3.359 1.438,3.359 0,0 -1.614,-1.484 -2.5,-2.152 l -6.555,-4.914 c -1.25,-0.934 -1.437,-1.57 -0.371,-2.996 l -3.328,-1.555 -5.285,7.039 2.429,2.778 c 1.067,-1.426 1.711,-1.387 2.95,-0.461"
         style="fill:#ffffff;fill-opacity:1;fill-rule:nonzero;stroke:none"
         transform="matrix(0.13333333,0,0,-0.13333333,0,102.41333)" />
      <path
         id="path11"
         d="m 328.73,488.496 4.54,-9.168 -2.899,-2.277 c -0.781,1.594 -1.484,1.695 -2.832,1.027 l -14.355,-7.109 c -1.399,-0.692 -1.7,-1.281 -0.911,-2.879 l -3.562,-0.918 -4.539,9.168 2.891,2.277 c 0.789,-1.594 1.445,-1.722 2.839,-1.027 l 14.356,7.109 c 1.355,0.664 1.699,1.289 0.91,2.875 l 3.562,0.922"
         style="fill:#ffffff;fill-opacity:1;fill-rule:nonzero;stroke:none"
         transform="matrix(0.13333333,0,0,-0.13333333,0,102.41333)" />
      <path
         id="path12"
         d="m 296.184,515.93 23.582,-2.129 2.082,-7.043 -18.684,-14.469 c -1.367,-1.047 -1.523,-1.605 -1.055,-3.187 l -3.691,-0.254 -2.883,9.773 3.235,1.789 c 0.46,-1.394 1.027,-1.601 2.207,-0.742 l 9.043,6.801 c 1.496,1.043 4.668,2.547 4.668,2.547 0,0 -3.497,-0.395 -5.34,-0.286 l -11.36,1.098 c -1.523,0.11 -1.836,-0.543 -1.418,-1.996 l -3.66,-0.293 -2.578,8.703 3.242,1.746 c 0.481,-1.621 0.899,-1.914 2.61,-2.058"
         style="fill:#ffffff;fill-opacity:1;fill-rule:nonzero;stroke:none"
         transform="matrix(0.13333333,0,0,-0.13333333,0,102.41333)" />
      <path
         id="path13"
         d="m 313.621,552.871 1.938,-21.133 -3.528,-1.121 c -0.156,1.778 -0.761,2.117 -2.273,1.977 l -15.949,-1.449 c -1.543,-0.145 -2.051,-0.586 -1.883,-2.364 l -3.664,0.469 -1.836,20.207 6.504,0.594 0.84,-2.785 c -2.098,-0.504 -2.54,-1.121 -2.254,-4.184 l 0.418,-4.691 6.613,0.601 -0.395,4.25 c -0.164,1.817 -0.535,2.453 -1.953,2.328 l 0.442,2.985 6.511,0.597 1.028,-2.851 c -1.465,-0.141 -1.719,-0.832 -1.543,-2.649 l 0.383,-4.246 7.175,0.653 -0.593,6.504 c -0.266,2.843 -1.106,3.3 -3.086,3.476 l 0.3,3.02 6.805,-0.188"
         style="fill:#ffffff;fill-opacity:1;fill-rule:nonzero;stroke:none"
         transform="matrix(0.13333333,0,0,-0.13333333,0,102.41333)" />
      <path
         id="path14"
         d="m 291.934,578.598 -0.457,-4.067 7.82,-0.879 0.449,3.938 c 0.332,2.961 -1.008,4.676 -3.391,4.945 -2.39,0.27 -4.089,-1.019 -4.421,-3.937 z m 24.636,11.343 -0.906,-8.086 c -4.297,-3.554 -10.996,0.11 -11.621,-5.417 l -0.359,-3.274 5.211,-0.582 c 1.503,-0.172 2.113,0.117 2.316,1.891 l 3.496,-1.153 -1.121,-10.078 -3.676,-0.398 c 0.207,1.816 -0.332,2.23 -1.836,2.398 l -15.918,1.781 c -1.504,0.168 -2.117,-0.164 -2.312,-1.933 l -3.496,1.199 1.543,13.789 c 0.742,6.68 3.925,10.309 9.011,9.738 3.325,-0.371 5.422,-2.394 6.321,-5.945 1.308,3.297 4.543,3.785 6.484,3.973 2.266,0.191 3.066,0.554 3.301,2.636 l 0.066,0.614 3.496,-1.153"
         style="fill:#ffffff;fill-opacity:1;fill-rule:nonzero;stroke:none"
         transform="matrix(0.13333333,0,0,-0.13333333,0,102.41333)" />
      <path
         id="path15"
         d="m 322.246,607.551 c -1.648,-5.125 -4.504,-8.321 -5.93,-9.68 l -5.164,3.254 0.762,2.371 c 3.262,-0.027 5.313,2.59 6.191,5.293 0.665,2.07 0.391,4.551 -1.816,5.258 -1.902,0.613 -3.215,-0.555 -5.351,-4.582 -2.129,-4.133 -5.555,-7.844 -10.86,-6.141 -5.156,1.668 -6.601,7.223 -4.707,13.114 1.445,4.484 3.809,7.605 5.137,8.953 l 4.883,-3.114 -0.75,-2.332 c -2.856,-0.297 -4.551,-2.644 -5.227,-4.757 -0.754,-2.336 -0.226,-4.329 1.516,-4.883 1.687,-0.547 2.925,0.687 4.5,3.687 2.89,5.473 5.996,9.051 11.797,7.184 5.683,-1.824 6.867,-7.863 5.019,-13.625"
         style="fill:#ffffff;fill-opacity:1;fill-rule:nonzero;stroke:none"
         transform="matrix(0.13333333,0,0,-0.13333333,0,102.41333)" />
      <path
         id="path16"
         d="m 334.395,637.008 -4.668,-9.106 -3.555,0.977 c 0.808,1.582 0.488,2.199 -0.859,2.891 l -14.258,7.304 c -1.387,0.711 -2.039,0.606 -2.852,-0.984 l -2.859,2.32 4.668,9.106 3.551,-0.969 c -0.809,-1.582 -0.516,-2.188 0.863,-2.902 l 14.258,-7.305 c 1.343,-0.692 2.039,-0.598 2.847,0.988 l 2.864,-2.32"
         style="fill:#ffffff;fill-opacity:1;fill-rule:nonzero;stroke:none"
         transform="matrix(0.13333333,0,0,-0.13333333,0,102.41333)" />
      <path
         id="path17"
         d="m 335.664,674.727 c -1.699,0.859 -2.734,0.953 -4.434,-1.375 l -1.582,-2.161 13.77,-10.097 c 1.23,-0.899 1.902,-0.946 2.961,0.484 l 2.449,-2.738 -5.996,-8.184 -3.379,1.489 c 1.082,1.468 0.82,2.093 -0.39,2.992 l -13.782,10.101 -1.582,-2.152 c -1.707,-2.332 -1.304,-3.289 0.024,-4.648 l -2.207,-2.02 -5.039,4.629 14.48,19.773 5.977,-3.379 -1.27,-2.714"
         style="fill:#ffffff;fill-opacity:1;fill-rule:nonzero;stroke:none"
         transform="matrix(0.13333333,0,0,-0.13333333,0,102.41333)" />
      <path
         id="path18"
         d="m 353.621,692.277 c -1.355,0.805 -4.141,3.133 -4.141,3.133 0,0 2.004,-3.121 2.676,-4.5 l 2.942,-6.933 5.136,4.796 z m 23.391,-4.464 -7.356,-6.856 -3.008,2.121 c 0.981,0.906 1.067,1.535 -0.359,2.277 l -1.98,1.012 -7.161,-6.679 0.848,-2.071 c 0.637,-1.539 1.367,-1.344 2.402,-0.371 l 1.915,-3.152 -6.344,-5.914 -3.008,2.113 c 1.172,1.094 1.348,1.691 0.672,3.254 l -6.895,16.258 c -0.437,0.996 -1.093,1.3 -2.363,0.117 l -1.875,3.183 10.574,9.864 3.047,-2.09 c -1.297,-1.215 -1.133,-1.785 -0.105,-2.293 l 15.832,-8.039 c 1.453,-0.77 2.058,-0.703 3.25,0.422 l 1.914,-3.156"
         style="fill:#ffffff;fill-opacity:1;fill-rule:nonzero;stroke:none"
         transform="matrix(0.13333333,0,0,-0.13333333,0,102.41333)" />
      <path
         id="path19"
         d="m 392.363,697.246 c -4.582,-2.832 -8.816,-3.426 -10.793,-3.543 l -1.824,5.828 2.109,1.309 c 2.481,-2.129 5.735,-1.465 8.157,0.031 1.843,1.152 3.242,3.211 2.019,5.176 -1.054,1.707 -2.812,1.66 -7.051,-0.02 -4.296,-1.773 -9.316,-2.375 -12.246,2.352 -2.851,4.609 -0.351,9.777 4.903,13.039 4.004,2.48 7.824,3.328 9.707,3.504 l 1.711,-5.543 -2.082,-1.289 c -2.364,1.629 -5.176,0.93 -7.071,-0.246 -2.082,-1.289 -2.968,-3.145 -2.011,-4.699 0.937,-1.512 2.695,-1.375 5.832,-0.106 5.742,2.305 10.425,3.012 13.64,-2.168 3.145,-5.066 0.137,-10.43 -5,-13.625"
         style="fill:#ffffff;fill-opacity:1;fill-rule:nonzero;stroke:none"
         transform="matrix(0.13333333,0,0,-0.13333333,0,102.41333)" />
      <path
         id="path20"
         d="m 469.379,733.516 c -1.856,-0.25 -2.168,-0.879 -1.992,-2.328 l 0.293,-2.114 c 0.195,-1.414 0.547,-1.726 1.484,-1.601 l -0.254,-3.489 c -3.89,-0.796 -4.555,-2.5 -10.512,-3.3 -7.976,-1.082 -15.253,1.89 -16.621,12.031 -1.25,9.308 4.161,14.836 12.84,16.012 5.196,0.699 9.231,-0.825 10.942,-1.539 l -0.723,-6.29 -2.387,-0.32 c -1.179,2.754 -3.719,3.582 -6.531,3.203 -4.98,-0.676 -7.246,-3.847 -6.414,-10.07 0.848,-6.258 3.504,-8.68 8.406,-8.027 1.184,0.16 2.637,0.718 3.418,1.269 l -0.461,3.352 c -0.191,1.453 -0.625,1.98 -2.515,1.726 l -0.493,-0.062 0.278,3.668 10.48,1.418 1.25,-3.469 -0.488,-0.07"
         style="fill:#ffffff;fill-opacity:1;fill-rule:nonzero;stroke:none"
         transform="matrix(0.13333333,0,0,-0.13333333,0,102.41333)" />
      <path
         id="path21"
         d="m 494.496,744.68 c -4.258,0.34 -6.484,-1.844 -7.031,-8.629 -0.547,-6.781 1.308,-9.301 5.547,-9.645 4.355,-0.351 6.504,1.848 7.051,8.629 0.546,6.785 -1.231,9.293 -5.567,9.645 z m -1.875,-23.242 c -8.262,0.667 -13.75,4.949 -12.91,15.238 0.82,10.289 6.934,13.637 15.195,12.969 8.379,-0.676 13.789,-4.946 12.949,-15.239 -0.82,-10.289 -6.855,-13.644 -15.234,-12.968"
         style="fill:#ffffff;fill-opacity:1;fill-rule:nonzero;stroke:none"
         transform="matrix(0.13333333,0,0,-0.13333333,0,102.41333)" />
      <path
         id="path22"
         d="m 537.934,733.242 c 0.175,1.887 -0.098,2.887 -2.891,3.653 l -2.578,0.703 -4.492,-16.485 c -0.391,-1.461 -0.215,-2.109 1.504,-2.578 l -1.661,-3.281 -9.804,2.676 0.176,3.687 c 1.757,-0.48 2.265,-0.015 2.656,1.442 l 4.511,16.484 -2.597,0.703 c -2.774,0.762 -3.516,0.043 -4.317,-1.68 l -2.675,1.336 2.519,6.368 23.653,-6.465 -1.016,-6.778 -2.988,0.215"
         style="fill:#ffffff;fill-opacity:1;fill-rule:nonzero;stroke:none"
         transform="matrix(0.13333333,0,0,-0.13333333,0,102.41333)" />
      <path
         id="path23"
         d="m 566.586,698.184 -9.043,4.601 0.918,3.574 c 1.641,-0.832 2.227,-0.476 2.891,0.879 l 2.793,5.469 -9.239,4.695 -2.773,-5.468 c -0.684,-1.348 -0.645,-2.02 0.937,-2.832 l -2.304,-2.872 -9.043,4.61 0.937,3.574 c 1.621,-0.828 2.207,-0.476 2.871,0.871 l 7.285,14.278 c 0.704,1.386 0.625,2.019 -0.996,2.851 l 2.344,2.852 9.043,-4.61 -0.957,-3.551 c -1.582,0.805 -2.148,0.493 -2.852,-0.894 l -2.246,-4.402 9.239,-4.704 2.246,4.399 c 0.703,1.387 0.625,2.031 -0.996,2.855 l 2.343,2.848 9.043,-4.609 -0.976,-3.543 c -1.582,0.8 -2.129,0.488 -2.832,-0.899 l -7.285,-14.273 c -0.684,-1.352 -0.625,-2.028 0.957,-2.828 l -2.305,-2.871"
         style="fill:#ffffff;fill-opacity:1;fill-rule:nonzero;stroke:none"
         transform="matrix(0.13333333,0,0,-0.13333333,0,102.41333)" />
      <path
         id="path24"
         d="m 598.734,702.48 c -3.281,2.715 -6.367,2.2 -10.683,-3.054 -4.336,-5.262 -4.258,-8.379 -0.957,-11.09 3.359,-2.773 6.367,-2.199 10.703,3.062 4.316,5.254 4.297,8.321 0.937,11.082 z M 583.93,684.484 c -6.387,5.262 -8.477,11.918 -1.914,19.887 6.562,7.969 13.496,7.223 19.882,1.961 6.504,-5.34 8.497,-11.945 1.934,-19.914 -6.562,-7.969 -13.418,-7.277 -19.902,-1.934"
         style="fill:#ffffff;fill-opacity:1;fill-rule:nonzero;stroke:none"
         transform="matrix(0.13333333,0,0,-0.13333333,0,102.41333)" />
      <path
         id="path25"
         d="m 619.125,673.301 2.051,-2.559 c 1.719,-2.117 3.535,-2.246 5.078,-0.996 1.543,1.231 1.816,2.875 0.059,5.059 l -2.11,2.597 z m -3.437,-2.762 -6.172,-4.961 2.461,-3.055 c 1.875,-2.32 4.003,-2.484 5.878,-0.98 1.836,1.48 2.071,3.73 0.157,6.125 z m -6.504,-11.226 -8.418,10.464 2.304,2.879 c 1.114,-1.383 1.817,-1.328 3.008,-0.379 l 12.461,10.043 c 1.211,0.973 1.367,1.625 0.254,3.012 l 3.32,1.633 7.871,-9.774 c 4.239,-5.265 4.727,-9.781 0.996,-12.793 -1.738,-1.394 -4.57,-1.437 -6.66,-0.382 1.309,-3.411 0.254,-6.422 -2.109,-8.321 -3.984,-3.215 -8.809,-1.613 -13.027,3.618"
         style="fill:#ffffff;fill-opacity:1;fill-rule:nonzero;stroke:none"
         transform="matrix(0.13333333,0,0,-0.13333333,0,102.41333)" />
      <path
         id="path26"
         d="m 651.547,630.969 -11.328,-5.781 c -5.156,-2.633 -10.567,-0.051 -13.985,6.648 -3.437,6.734 -2.382,12.676 2.774,15.305 l 11.347,5.781 c 1.387,0.707 1.661,1.308 0.86,2.894 l 3.574,0.922 4.766,-9.312 -2.871,-2.309 c -0.821,1.582 -1.465,1.696 -2.852,0.988 l -11.387,-5.8 c -2.246,-1.153 -3.007,-3.391 -1.465,-6.403 1.563,-3.086 3.848,-3.828 6.094,-2.675 l 11.387,5.804 c 1.387,0.703 1.68,1.309 0.879,2.852 l 3.555,0.969 4.355,-8.528 -2.852,-2.347 c -0.8,1.586 -1.464,1.695 -2.851,0.992"
         style="fill:#ffffff;fill-opacity:1;fill-rule:nonzero;stroke:none"
         transform="matrix(0.13333333,0,0,-0.13333333,0,102.41333)" />
      <path
         id="path27"
         d="m 661.586,605.121 -1.035,3.961 -7.617,-2.016 1.015,-3.828 c 0.762,-2.883 2.617,-4 4.942,-3.383 2.324,0.614 3.457,2.43 2.695,5.266 z m -18.867,-19.484 -2.071,7.871 c 2.715,4.859 10.293,3.875 8.868,9.25 l -0.84,3.18 -5.078,-1.336 c -1.465,-0.387 -1.914,-0.879 -1.465,-2.598 l -3.672,-0.195 -2.598,9.808 3.282,1.696 c 0.468,-1.766 1.113,-1.961 2.578,-1.575 l 15.468,4.098 c 1.465,0.387 1.914,0.918 1.465,2.641 l 3.692,0.144 3.554,-13.422 c 1.719,-6.492 0.059,-11.027 -4.882,-12.332 -3.223,-0.855 -5.918,0.278 -8.047,3.258 -0.02,-3.551 -2.852,-5.176 -4.61,-6.047 -2.031,-1.004 -2.656,-1.625 -2.109,-3.648 l 0.156,-0.602 -3.691,-0.191"
         style="fill:#ffffff;fill-opacity:1;fill-rule:nonzero;stroke:none"
         transform="matrix(0.13333333,0,0,-0.13333333,0,102.41333)" />
      <path
         id="path28"
         d="m 655.824,551.957 c -0.097,1.871 -0.683,2.242 -2.148,2.164 l -2.129,-0.105 c -1.426,-0.071 -1.777,-0.399 -1.738,-1.328 l -3.438,0.546 c -0.469,3.934 -2.109,4.746 -2.402,10.746 -0.41,8.043 3.183,15.036 13.379,15.536 9.394,0.464 14.433,-5.391 14.882,-14.145 0.254,-5.242 -1.601,-9.121 -2.46,-10.766 l -6.211,1.254 -0.118,2.399 c 2.852,0.941 3.887,3.402 3.75,6.246 -0.253,5.019 -3.222,7.543 -9.492,7.234 -6.308,-0.312 -8.945,-2.754 -8.711,-7.683 0.059,-1.203 0.489,-2.696 0.977,-3.524 l 3.379,0.168 c 1.465,0.074 2.031,0.453 1.933,2.367 l -0.019,0.489 3.633,-0.575 0.527,-10.578 -3.574,-0.937 -0.02,0.492"
         style="fill:#ffffff;fill-opacity:1;fill-rule:nonzero;stroke:none"
         transform="matrix(0.13333333,0,0,-0.13333333,0,102.41333)" />
      <path
         id="path29"
         d="m 640.98,521.066 3.204,20.977 3.671,0.254 c -0.273,-1.762 0.254,-2.246 1.739,-2.473 l 15.84,-2.422 c 1.543,-0.234 2.129,0.082 2.402,1.84 l 3.437,-1.332 -3.066,-20.058 -6.445,0.988 -0.157,2.902 c 2.149,-0.012 2.715,0.485 3.184,3.516 l 0.723,4.664 -6.563,1 -0.644,-4.223 c -0.274,-1.801 -0.059,-2.508 1.347,-2.722 l -1.152,-2.793 -6.465,0.984 -0.312,3.02 c 1.465,-0.227 1.855,0.39 2.148,2.191 l 0.625,4.223 -7.109,1.089 -0.996,-6.468 c -0.43,-2.813 0.293,-3.465 2.168,-4.11 l -1.016,-2.855 -6.563,1.808"
         style="fill:#ffffff;fill-opacity:1;fill-rule:nonzero;stroke:none"
         transform="matrix(0.13333333,0,0,-0.13333333,0,102.41333)" />
      <path
         id="path30"
         d="m 649.867,479.477 -20.39,7.691 1.933,5.117 18.496,5.293 c 1.27,0.375 3.516,0.625 3.516,0.625 0,0 -2.09,0.547 -2.988,0.891 l -9.004,3.386 c -1.407,0.54 -2.071,0.411 -2.696,-1.253 l -3.125,1.98 3.106,8.199 3.652,-0.527 c -0.625,-1.66 -0.234,-2.234 1.192,-2.774 l 14.98,-5.652 c 1.445,-0.555 2.109,-0.363 2.734,1.301 l 3.086,-2.016 -2.793,-7.371 -16.796,-4.836 c -1.329,-0.359 -3.594,-0.593 -3.594,-0.593 0,0 2.109,-0.563 3.144,-0.95 l 7.676,-2.894 c 1.445,-0.551 2.09,-0.356 2.715,1.304 l 3.105,-1.98 -3.105,-8.246 -3.633,0.566 c 0.625,1.672 0.254,2.188 -1.211,2.739"
         style="fill:#ffffff;fill-opacity:1;fill-rule:nonzero;stroke:none"
         transform="matrix(0.13333333,0,0,-0.13333333,0,102.41333)" />
      <path
         id="path31"
         d="m 618.813,469.352 c 2.871,4.554 6.425,6.929 8.144,7.906 l 4.199,-4.445 -1.328,-2.106 c -3.164,0.836 -5.801,-1.176 -7.324,-3.59 -1.172,-1.844 -1.504,-4.304 0.449,-5.543 1.68,-1.066 3.242,-0.261 6.328,3.106 3.086,3.476 7.344,6.211 12.032,3.234 4.589,-2.894 4.609,-8.637 1.308,-13.859 -2.519,-3.992 -5.586,-6.422 -7.207,-7.403 l -3.945,4.231 1.289,2.066 c 2.851,-0.414 5.078,1.438 6.25,3.321 1.308,2.07 1.308,4.132 -0.235,5.101 -1.523,0.953 -3.007,0.067 -5.293,-2.449 -4.16,-4.582 -8.066,-7.27 -13.222,-4.016 -5.039,3.18 -4.688,9.324 -1.445,14.446"
         style="fill:#ffffff;fill-opacity:1;fill-rule:nonzero;stroke:none"
         transform="matrix(0.13333333,0,0,-0.13333333,0,102.41333)" />
      <path
         id="path32"
         d="m 599.398,443.5 6.817,7.645 3.183,-1.829 c -1.171,-1.328 -1.015,-2.011 0.118,-3.015 l 11.972,-10.645 c 1.153,-1.039 1.817,-1.093 3.008,0.235 l 2.188,-2.95 -6.817,-7.652 -3.183,1.824 c 1.191,1.336 1.035,1.989 -0.118,3.024 l -11.953,10.64 c -1.152,1.008 -1.836,1.094 -3.027,-0.234 l -2.188,2.957"
         style="fill:#ffffff;fill-opacity:1;fill-rule:nonzero;stroke:none"
         transform="matrix(0.13333333,0,0,-0.13333333,0,102.41333)" />
      <path
         id="path33"
         d="m 582.387,428.516 c 4.199,3.371 8.34,4.464 10.273,4.808 l 2.52,-5.554 -1.953,-1.559 c -2.696,1.816 -5.86,0.777 -8.086,-1.012 -1.7,-1.359 -2.832,-3.578 -1.368,-5.383 1.231,-1.562 2.969,-1.308 6.993,0.879 4.043,2.274 8.945,3.477 12.441,-0.871 3.379,-4.238 1.523,-9.656 -3.301,-13.535 -3.672,-2.949 -7.363,-4.238 -9.218,-4.637 l -2.364,5.282 1.914,1.543 c 2.539,-1.329 5.254,-0.301 6.973,1.093 1.914,1.524 2.578,3.477 1.445,4.903 -1.113,1.386 -2.832,1.047 -5.801,-0.594 -5.429,-2.981 -10,-4.25 -13.808,0.508 -3.731,4.656 -1.387,10.343 3.34,14.129"
         style="fill:#ffffff;fill-opacity:1;fill-rule:nonzero;stroke:none"
         transform="matrix(0.13333333,0,0,-0.13333333,0,102.41333)" />
      <path
         id="path34"
         d="m 434.805,368.242 -13.653,3.906 0.286,3.711 1.746,-0.507 c 1.796,-0.508 2.375,-0.118 2.793,1.328 l 3.972,13.906 c -0.972,-0.508 -2.613,-0.731 -5.398,-0.254 l 1.152,4.016 c 2.981,-0.11 4.785,0.203 7.844,2.988 l 5.562,-1.594 -6.035,-21.094 c -0.418,-1.445 -0.047,-2.109 1.699,-2.605 l 1.758,-0.5 -1.726,-3.301"
         style="fill:#ffffff;fill-opacity:1;fill-rule:nonzero;stroke:none"
         transform="matrix(0.13333333,0,0,-0.13333333,0,102.41333)" />
      <path
         id="path35"
         d="m 463.125,387.891 c -2.48,0.234 -4.219,-0.633 -4.387,-2.364 -0.164,-1.765 1.34,-3.3 3.723,-4.636 2.5,0.886 4.262,2.097 4.437,3.875 0.157,1.718 -1.429,2.902 -3.773,3.125 z m -1.074,-11.387 c -3.059,-1.094 -5.305,-2.625 -5.508,-4.883 -0.195,-1.992 1.75,-3.66 4.68,-3.926 2.832,-0.273 5.129,0.938 5.324,2.93 0.215,2.305 -1.75,4.238 -4.496,5.879 z m -1.223,-12.938 c -7.527,0.711 -12.027,4.176 -11.598,8.739 0.372,3.945 3.731,5.859 7.372,7.031 -2.969,1.719 -5.457,3.828 -5.157,6.973 0.371,4.023 5.059,6.359 12.063,5.703 6.691,-0.633 11.047,-3.817 10.656,-7.84 -0.293,-3.145 -3.086,-4.758 -6.309,-5.891 3.34,-1.836 6.29,-4.343 5.918,-8.281 -0.429,-4.559 -5.644,-7.109 -12.945,-6.434"
         style="fill:#ffffff;fill-opacity:1;fill-rule:nonzero;stroke:none"
         transform="matrix(0.13333333,0,0,-0.13333333,0,102.41333)" />
      <path
         id="path36"
         d="m 495.434,387.629 c -3.301,-0.324 -4.981,-2.668 -4.668,-6.047 0.312,-3.133 2.187,-5.059 5.332,-4.746 2.871,0.266 5.371,2.305 5.019,5.937 -0.234,2.383 -1.797,5.223 -5.683,4.856 z m -0.098,-24.152 c -1.816,-0.164 -5.293,0.117 -6.484,0.851 l -0.372,3.906 c 1.329,-0.363 3.262,-0.539 5,-0.371 4.864,0.465 7.676,2.918 8.282,7.774 -0.879,-1.477 -3.438,-2.883 -6.133,-3.145 -6.699,-0.637 -10.879,2.891 -11.406,8.465 -0.547,5.715 3.574,10.234 10.781,10.918 8.379,0.801 12.754,-4.227 13.457,-11.445 0.82,-8.633 -2.949,-15.965 -13.125,-16.953"
         style="fill:#ffffff;fill-opacity:1;fill-rule:nonzero;stroke:none"
         transform="matrix(0.13333333,0,0,-0.13333333,0,102.41333)" />
      <path
         id="path37"
         d="m 538.344,372.117 -13.731,-3.621 -1.64,3.332 1.757,0.469 c 1.797,0.476 2.09,1.101 1.7,2.566 l -3.692,13.985 c -0.586,-0.938 -1.855,-1.973 -4.492,-2.989 l -1.074,4.043 c 2.617,1.426 4.004,2.618 5.215,6.582 l 5.605,1.465 5.586,-21.203 c 0.391,-1.453 1.035,-1.844 2.813,-1.375 l 1.757,0.469 0.196,-3.723"
         style="fill:#ffffff;fill-opacity:1;fill-rule:nonzero;stroke:none"
         transform="matrix(0.13333333,0,0,-0.13333333,0,102.41333)" />
      <path
         id="path38"
         d="m 407.227,548.953 c -2.383,1.336 -0.809,7.551 2.644,8.078 2.426,0.379 11.059,1.25 13.918,0 2.207,-0.957 3.965,-6.64 2.727,-8.008 -2.356,-2.605 -15.879,-1.953 -19.289,-0.07 z m -27.891,16.012 c -0.234,2.848 4.148,6.609 7.09,5.992 2.363,-0.496 10.012,-8.535 10.351,-10.352 0.618,-3.32 -2.558,-6.531 -4.785,-6.699 -3.437,-0.25 -12.402,7.949 -12.656,11.059 z m 2.617,15.566 c -1.672,-1.996 -6.074,-3.093 -7.89,-1.652 -2.715,2.187 -3.543,11.098 -1.778,14.891 1.192,2.558 8.137,3.859 9.297,0.941 0.781,-2.012 1.621,-12.699 0.371,-14.18 z m 2.715,25.125 c -3.008,-1.504 -7.395,1.317 -7.695,5.02 -0.313,3.711 8.789,12.332 11.953,11.465 1.543,-0.422 4.289,-4.016 4.043,-6.633 -0.176,-1.824 -6.543,-8.973 -8.301,-9.852 z m 46.445,-33.047 c -3.144,1.356 -12.07,13.204 -9.172,16.102 2.715,2.73 15.122,9.086 16.965,7.375 7.09,-6.594 -1.64,-26.164 -7.793,-23.477 z m -34.531,2.977 c -0.012,2.766 11.563,10.098 15.773,8.527 3.399,-1.261 9.637,-15.703 6.375,-17.199 -7.812,-3.574 -22.148,3.566 -22.148,8.672 z m 3.301,33.43 c 2.168,0.332 8.894,-11.289 7.59,-15.383 -1.106,-3.461 -14.387,-9.082 -15.703,-7.77 -4.004,4 -1.985,21.602 8.113,23.153 z m 33.437,-3.098 c 0,-3.406 -12.715,-10.051 -15.09,-8.652 -3.464,2.047 -10.972,13.468 -9.5,15.289 5.125,6.351 24.59,-1.285 24.59,-6.637 z m -11.132,23.41 c 0.75,-1.601 1.66,-4.25 -0.02,-6.094 -1.398,-1.543 -14.348,-2.664 -16.23,-2.539 -3.985,0.262 -5.489,5.024 -4.18,7.071 2.39,3.714 19.055,4.539 20.43,1.562 z m 28.242,-16.601 c -0.418,-2.207 -4.297,-3.508 -5.879,-3.329 -1.934,0.219 -10.711,7.071 -11.238,9.329 -0.696,2.953 1.55,5.152 3.445,5.621 5.117,1.277 14.258,-8.457 13.672,-11.621 z m 6.504,-30.274 c -1.868,-1.246 -5.657,-1.109 -7.149,1.152 -1.023,1.543 -1.445,13.497 -0.762,15.196 0.704,1.758 5.223,2.984 7.403,1.785 2.492,-1.367 3.554,-16.113 0.508,-18.133 z m -12.129,-10.734 c 1.933,0.176 5.965,-0.789 7.019,-3.446 1.164,-2.886 -7.156,-11.972 -10.847,-13.031 -2.266,-0.648 -6.122,3.539 -5.497,6.899 0.399,2.175 7.75,9.441 9.325,9.578 z m 20.34,24.758 c -1.317,15.949 -16.707,37.207 -38.434,40.808 -23.606,3.918 -57.902,-6.133 -61.867,-40.808 -4.114,-35.879 21.511,-60.45 54.492,-57.918 35.781,2.742 47.68,35.347 45.809,57.918"
         style="fill:#ffffff;fill-opacity:1;fill-rule:nonzero;stroke:none"
         transform="matrix(0.13333333,0,0,-0.13333333,0,102.41333)" />
      <path
         id="path39"
         d="m 63.6797,208.73 c 0,29.961 20.2539,47.618 46.9253,47.618 10.122,0 16.004,-1.649 21.211,-3.164 l 4.512,3.976 h 2.051 l 0.957,-29.961 h -2.871 c -6.836,18.328 -16.555,23.524 -26.68,23.524 -15.8748,0 -31.328,-11.895 -31.328,-40.614 0,-22.453 11.2188,-42.824 34.477,-42.824 6.707,0 13.953,1.914 13.953,4.094 0,4.656 0.144,17.109 -0.278,27.637 l -0.546,0.554 -13.407,0.684 v 4.641 h 38.313 v -4.641 l -9.856,-0.684 -0.547,-0.554 c -0.273,-8.75 -0.414,-18.594 -0.273,-29.133 -1.641,-3.418 -14.77,-8.75 -28.594,-8.75 -27.9021,0 -48.0193,17.363 -48.0193,47.597"
         style="fill:#ffffff;fill-opacity:1;fill-rule:nonzero;stroke:none"
         transform="matrix(0.13333333,0,0,-0.13333333,0,102.41333)" />
      <path
         id="path40"
         d="m 214.578,272.078 c 0,4.367 2.735,7.793 7.387,7.793 4.375,0 7.117,-2.879 7.117,-7.254 0,-4.383 -2.883,-7.793 -7.527,-7.793 -4.242,0 -6.977,2.871 -6.977,7.254 z m -25.594,0 c 0,4.367 2.746,7.793 7.395,7.793 4.379,0 7.105,-2.879 7.105,-7.254 0,-4.383 -2.859,-7.793 -7.523,-7.793 -4.231,0 -6.977,2.871 -6.977,7.254 z m 48.438,-63.348 c 0,27.637 -10.813,41.458 -28.184,41.458 -17.375,0 -28.453,-13.821 -28.453,-41.458 0,-27.625 10.809,-41.445 28.18,-41.445 17.375,0 28.457,13.82 28.457,41.445 z m -71.414,-1.367 c 0,31.055 19.019,48.985 43.23,48.985 27.227,0 42.957,-19.168 42.957,-46.239 0,-31.066 -19.019,-48.976 -43.23,-48.976 -27.223,0 -42.957,19.14 -42.957,46.23"
         style="fill:#ffffff;fill-opacity:1;fill-rule:nonzero;stroke:none"
         transform="matrix(0.13333333,0,0,-0.13333333,0,102.41333)" />
      <path
         id="path41"
         d="m 280.645,167.148 14.636,0.676 0.547,0.543 c 0.141,5.071 0.422,22.719 0.422,41.184 0,18.469 0,33.652 -0.422,38.437 l -0.418,0.684 h -16.269 c -2.871,0 -6.289,-4.922 -11.895,-21.473 h -2.734 l 1.093,29.961 h 2.454 l 3.972,-2.324 h 61.426 l 3.965,2.324 h 2.461 l 1.094,-29.961 h -2.735 c -5.742,16.688 -9.023,21.473 -11.894,21.473 h -16.289 l -0.411,-0.684 c -0.136,-3.281 -0.41,-21.746 -0.41,-40.215 0,-18.476 0.274,-34.472 0.41,-39.406 l 0.547,-0.543 15.047,-0.676 v -4.668 h -44.597 v 4.668"
         style="fill:#ffffff;fill-opacity:1;fill-rule:nonzero;stroke:none"
         transform="matrix(0.13333333,0,0,-0.13333333,0,102.41333)" />
      <path
         id="path42"
         d="m 357.383,167.148 13.418,0.676 0.547,0.543 c 0.136,6.293 0.41,22.719 0.41,41.184 0,18.469 -0.274,33.926 -0.41,39.394 l -0.547,0.547 -13.418,0.696 v 4.648 h 60.058 l 5.34,2.324 h 2.063 l 0.957,-29.961 h -2.742 c -4.934,13.817 -9.309,20.664 -11.621,20.789 l -25.864,1.379 -0.418,-0.695 c -0.129,-6.277 -0.398,-20.801 -0.398,-36.113 6.16,0 19.558,0.41 23.113,0.683 l 0.547,0.547 4.922,9.578 h 2.598 c -0.137,-3.824 -0.262,-9.715 -0.262,-13.406 0,-3.555 0.125,-11.211 0.262,-15.32 h -2.598 l -4.922,11.355 -0.547,0.547 c -4.238,0.137 -16.418,0.402 -23.113,0.402 0,-17.375 0.269,-31.32 0.398,-38.293 l 0.418,-0.683 27.91,1.496 c 2.317,0.144 8.469,5.762 13.403,21.894 h 3.152 c -1.785,-26.671 -2.195,-28.879 -4.512,-28.879 h -68.144 v 4.668"
         style="fill:#ffffff;fill-opacity:1;fill-rule:nonzero;stroke:none"
         transform="matrix(0.13333333,0,0,-0.13333333,0,102.41333)" />
      <path
         id="path43"
         d="m 509.105,188.75 c 0,12.996 -8.906,18.066 -20.937,18.066 h -14.355 c -0.137,-17.371 0.273,-31.191 0.41,-38.449 l 0.683,-0.543 c 2.598,-0.148 5.059,-0.148 6.699,-0.148 18.477,0 27.5,7.676 27.5,21.074 z m -26.679,24.082 c 16.133,0 20.254,7.664 20.254,18.203 0,7.246 -2.598,12.715 -8.223,15.598 -3.555,1.902 -8.613,2.996 -16.133,2.996 -0.683,0 -2.187,0 -3.554,-0.137 l -0.547,-0.672 c -0.137,-7.121 -0.547,-20.519 -0.41,-35.988 z m -35.981,-45.684 13.41,0.676 0.543,0.543 c 0.137,4.797 0.415,22.719 0.415,41.184 0,18.469 -0.278,33.379 -0.415,39.394 l -0.543,0.547 -13.41,0.696 v 4.648 c 10.125,0 21.762,0.273 29.828,0.273 9.981,0 17.657,-0.832 23.809,-2.746 10.801,-3.418 17.363,-10.39 17.363,-20.379 0,-11.757 -7.793,-18.742 -16.679,-20.929 v -0.274 c 14.492,-0.672 23.105,-9.168 23.105,-20.246 0,-18.601 -16.68,-28.316 -43.223,-28.316 -8.886,0 -23.253,0.261 -34.203,0.261 v 4.668"
         style="fill:#ffffff;fill-opacity:1;fill-rule:nonzero;stroke:none"
         transform="matrix(0.13333333,0,0,-0.13333333,0,102.41333)" />
      <path
         id="path44"
         d="m 614.438,208.73 c 0,27.637 -10.801,41.458 -28.184,41.458 -17.363,0 -28.457,-13.821 -28.457,-41.458 0,-27.625 10.82,-41.445 28.183,-41.445 17.364,0 28.458,13.82 28.458,41.445 z m -71.407,-1.367 c 0,31.055 19.004,48.985 43.223,48.985 27.226,0 42.949,-19.168 42.949,-46.239 0,-31.066 -19.004,-48.976 -43.223,-48.976 -27.226,0 -42.949,19.14 -42.949,46.23"
         style="fill:#ffffff;fill-opacity:1;fill-rule:nonzero;stroke:none"
         transform="matrix(0.13333333,0,0,-0.13333333,0,102.41333)" />
      <path
         id="path45"
         d="m 701.586,231.035 c 0,7.52 -3.281,13.125 -9.453,15.996 -3.418,1.641 -7.656,2.598 -16.27,2.598 h -4.511 l -0.411,-0.399 c -0.136,-5.89 -0.273,-23.808 -0.429,-39.816 23.808,0.695 31.074,8.34 31.074,21.621 z m -58.691,-63.887 13.671,0.676 0.567,0.543 c 0.117,3.977 0.39,22.719 0.39,41.184 0,18.469 -0.273,33.242 -0.39,39.394 l -0.567,0.547 -13.671,0.696 v 4.648 c 12.304,0 25.449,0.273 32.421,0.273 10.801,0 17.09,-0.683 22.168,-2.199 13.125,-3.965 18.868,-12.441 18.868,-21.75 0,-13.531 -9.161,-19.969 -20.391,-23.523 v -0.274 c 3.555,-4.109 9.727,-15.32 17.656,-29.277 3.418,-6.023 6.699,-10.527 11.211,-10.801 l 3.008,-0.137 v -4.668 h -20.508 l -0.547,0.555 c -5.078,10.266 -8.633,18.606 -17.246,33.938 -1.777,3.136 -3.418,5.73 -5.469,8.066 -4.921,-0.691 -9.57,-0.957 -13.554,-0.957 -0.117,-16.289 0.293,-31.602 0.429,-35.715 l 0.547,-0.543 12.578,-0.676 v -4.668 h -41.171 v 4.668"
         style="fill:#ffffff;fill-opacity:1;fill-rule:nonzero;stroke:none"
         transform="matrix(0.13333333,0,0,-0.13333333,0,102.41333)" />
      <path
         id="path46"
         d="m 738.109,208.73 c 0,29.961 20.235,47.618 46.914,47.618 10.137,0 16.016,-1.649 21.211,-3.164 l 4.512,3.976 h 2.051 l 0.957,-29.961 h -2.871 c -6.836,18.328 -16.563,23.524 -26.68,23.524 -15.879,0 -31.328,-11.895 -31.328,-40.614 0,-22.453 11.211,-42.824 34.473,-42.824 6.718,0 13.965,1.914 13.965,4.094 0,4.656 0.136,17.109 -0.274,27.637 l -0.566,0.554 -13.379,0.684 v 4.641 h 38.281 v -4.641 l -9.844,-0.684 -0.547,-0.554 c -0.273,-8.75 -0.41,-18.594 -0.273,-29.133 -1.641,-3.418 -14.766,-8.75 -28.594,-8.75 -27.91,0 -48.008,17.363 -48.008,47.597"
         style="fill:#ffffff;fill-opacity:1;fill-rule:nonzero;stroke:none"
         transform="matrix(0.13333333,0,0,-0.13333333,0,102.41333)" />
      <path
         id="path47"
         d="m 839.73,191.359 h 3.165 c 4.785,-17.375 12.578,-24.629 22.148,-24.629 11.23,0 18.34,7.528 18.34,17.372 0,23.808 -41.992,17.793 -41.992,47.882 0,12.723 9.98,24.364 27.343,24.364 8.907,0 16.016,-2.743 17.52,-3.164 l 4.101,3.976 h 2.598 l 0.82,-29.961 h -2.871 c -5.742,16.688 -13.261,23.524 -22.578,23.524 -8.066,0 -15.039,-5.332 -15.039,-14.356 0,-22.851 42.695,-19.289 42.695,-48.152 0,-13.82 -10.41,-27.082 -31.757,-27.082 -5.879,0 -12.852,1.347 -18.868,5.332 l -2.734,-5.332 h -2.891 v 30.226"
         style="fill:#ffffff;fill-opacity:1;fill-rule:nonzero;stroke:none"
         transform="matrix(0.13333333,0,0,-0.13333333,0,102.41333)" />
      <path
         id="path48"
         d="m 13.8242,34.2109 c 0,5.1954 0.1328,8.3282 0.1328,21.875 0,10.8086 -0.1328,19.4336 -0.2773,31.7383 L 13.1406,88.3672 0,89.0625 v 4.6484 H 39.1328 V 89.0625 L 28.0469,88.3672 27.5,87.8242 c -0.1328,-10.2539 -0.2656,-32.414 -0.2656,-53.0781 0,-17.2266 3.9609,-28.86719 22.1601,-28.86719 19.0078,0 24.4766,11.08589 24.4766,31.46489 0,17.7929 -0.2695,37.0703 -0.5391,50.4804 l -0.5507,0.543 -12.586,0.6953 v 4.6484 H 96.4492 V 89.0625 L 83.0469,88.3672 82.5,87.8242 C 82.0898,73.1836 82.0898,53.0859 82.2266,36.1133 82.3516,12.5898 71.2734,0 48.3008,0 25.7266,0 13.8242,11.6328 13.8242,34.2109"
         style="fill:#ffffff;fill-opacity:1;fill-rule:nonzero;stroke:none"
         transform="matrix(0.13333333,0,0,-0.13333333,0,102.41333)" />
      <path
         id="path49"
         d="m 108.754,6.01563 13.414,0.68359 0.543,0.54687 c 0.414,14.64841 0.414,25.44921 0.414,39.13281 0,13.6797 0,21.1992 -0.414,41.4453 l -0.543,0.543 -13.414,0.6953 v 4.6484 h 26.141 c 16.687,-23.3867 35.703,-50.7421 49.382,-70.3125 h 0.274 c -0.274,26.2618 -0.547,51.0157 -0.821,64.4258 l -0.546,0.543 -12.586,0.6953 v 4.6484 h 36.254 v -4.6484 l -13.414,-0.6953 -0.54,-0.543 c -0.41,-14.6406 -0.41,-25.4414 -0.41,-59.7773 V 0.683594 h -6.707 C 168.816,24.7578 148.563,53.0859 131.332,77.7031 h -0.269 c 0.136,-32.0195 0.546,-56.7656 0.824,-70.45701 L 132.422,6.69922 145.02,6.01563 V 1.36719 h -36.266 v 4.64844"
         style="fill:#ffffff;fill-opacity:1;fill-rule:nonzero;stroke:none"
         transform="matrix(0.13333333,0,0,-0.13333333,0,102.41333)" />
      <path
         id="path50"
         d="m 223.262,6.01563 13.402,0.68359 0.555,0.54687 c 0.277,4.24611 0.41,22.71481 0.41,41.18361 0,18.4648 -0.133,34.7461 -0.41,39.3945 l -0.555,0.543 -13.402,0.6953 v 4.6484 h 41.593 v -4.6484 l -13.273,-0.6953 -0.547,-0.543 c -0.273,-3.6914 -0.41,-22.707 -0.41,-41.1719 0,-18.4687 0.273,-34.7578 0.41,-39.40621 l 0.547,-0.54687 13.273,-0.68359 V 1.36719 h -41.593 v 4.64844"
         style="fill:#ffffff;fill-opacity:1;fill-rule:nonzero;stroke:none"
         transform="matrix(0.13333333,0,0,-0.13333333,0,102.41333)" />
      <path
         id="path51"
         d="m 284.688,88.6523 -8.211,0.4102 v 4.6484 h 35.847 v -4.6484 l -12.179,-0.5469 -0.555,-0.5468 c 7.676,-19.8321 16.699,-43.7891 25.73,-66.8946 h 0.278 c 6.699,18.6055 18.328,51.6992 22.84,67.0313 l -0.411,0.4101 -11.074,0.5469 v 4.6484 h 30.227 v -4.6484 l -7.942,-0.4102 C 352.129,70.5859 335.715,28.0469 324.902,0 h -3.691 c -14.094,34.2109 -26.262,64.0234 -36.523,88.6523"
         style="fill:#ffffff;fill-opacity:1;fill-rule:nonzero;stroke:none"
         transform="matrix(0.13333333,0,0,-0.13333333,0,102.41333)" />
      <path
         id="path52"
         d="m 377.422,6.01563 13.418,0.68359 0.547,0.54687 c 0.136,6.30081 0.41,22.71481 0.41,41.18361 0,18.4648 -0.274,33.9258 -0.41,39.3945 l -0.547,0.543 -13.418,0.6953 v 4.6484 h 60.066 l 5.344,2.3243 h 2.051 l 0.957,-29.961 h -2.742 c -4.934,13.8203 -9.297,20.6563 -11.621,20.8008 l -25.864,1.3672 -0.41,-0.6836 c -0.137,-6.2969 -0.406,-20.8008 -0.406,-36.1133 6.16,0 19.558,0.4024 23.113,0.6836 l 0.547,0.5391 4.922,9.5781 h 2.605 c -0.132,-3.8281 -0.269,-9.707 -0.269,-13.3984 0,-3.5625 0.137,-11.2305 0.269,-15.3321 h -2.605 l -4.922,11.3594 -0.547,0.5469 c -4.238,0.1445 -16.418,0.4062 -23.113,0.4062 0,-17.3789 0.269,-31.3359 0.406,-38.30857 l 0.41,-0.67187 27.91,1.5039 c 2.329,0.125 8.469,5.74224 13.403,21.88284 h 3.152 C 448.301,3.56641 447.883,1.36719 445.566,1.36719 h -68.144 v 4.64844"
         style="fill:#ffffff;fill-opacity:1;fill-rule:nonzero;stroke:none"
         transform="matrix(0.13333333,0,0,-0.13333333,0,102.41333)" />
      <path
         id="path53"
         d="m 525.18,69.9023 c 0,7.5313 -3.282,13.1446 -9.434,16.0157 -3.437,1.6406 -7.676,2.5976 -16.289,2.5976 h -4.512 l -0.41,-0.4101 c -0.137,-5.8789 -0.273,-23.8086 -0.41,-39.8242 23.809,0.6953 31.055,8.3593 31.055,21.621 z m -58.692,-63.88667 13.672,0.68359 0.567,0.54687 c 0.136,3.96481 0.39,22.71481 0.39,41.18361 0,18.4648 -0.254,33.25 -0.39,39.3945 l -0.567,0.543 -13.672,0.6953 v 4.6484 c 12.325,0 25.45,0.2735 32.422,0.2735 10.801,0 17.11,-0.6836 22.168,-2.1875 13.125,-3.9727 18.867,-12.4492 18.867,-21.7578 0,-13.5352 -9.16,-19.9688 -20.371,-23.5235 v -0.2734 c 3.555,-4.1133 9.707,-15.3242 17.637,-29.2774 3.418,-6.0156 6.719,-10.53902 11.211,-10.80464 l 3.027,-0.14453 V 1.36719 h -20.527 l -0.547,0.55859 c -5.059,10.25392 -8.613,18.59372 -17.227,33.92582 -1.777,3.1328 -3.437,5.7304 -5.488,8.0664 -4.922,-0.6836 -9.57,-0.9492 -13.535,-0.9492 -0.137,-16.2891 0.273,-31.6094 0.41,-35.72271 L 495.082,6.69922 507.66,6.01563 V 1.36719 h -41.172 v 4.64844"
         style="fill:#ffffff;fill-opacity:1;fill-rule:nonzero;stroke:none"
         transform="matrix(0.13333333,0,0,-0.13333333,0,102.41333)" />
      <path
         id="path54"
         d="m 566.488,30.2344 h 3.145 c 4.785,-17.3711 12.578,-24.62893 22.168,-24.62893 11.211,0 18.32,7.53123 18.32,17.38283 0,23.789 -41.992,17.7734 -41.992,47.8789 0,12.7187 9.98,24.3476 27.363,24.3476 8.887,0 16.016,-2.7343 17.5,-3.1445 l 4.102,3.9649 h 2.597 l 0.84,-29.961 h -2.871 c -5.762,16.6914 -13.281,23.5352 -22.578,23.5352 -8.066,0 -15.059,-5.3321 -15.059,-14.3555 0,-22.8516 42.696,-19.2969 42.696,-48.1641 C 622.719,13.2813 612.309,0 590.98,0 585.102,0 578.109,1.36719 572.094,5.33203 L 569.359,0 h -2.871 v 30.2344"
         style="fill:#ffffff;fill-opacity:1;fill-rule:nonzero;stroke:none"
         transform="matrix(0.13333333,0,0,-0.13333333,0,102.41333)" />
      <path
         id="path55"
         d="m 642.543,6.01563 13.418,0.68359 0.547,0.54687 c 0.273,4.24611 0.41,22.71481 0.41,41.18361 0,18.4648 -0.137,34.7461 -0.41,39.3945 l -0.547,0.543 -13.418,0.6953 v 4.6484 h 41.602 v -4.6484 l -13.282,-0.6953 -0.547,-0.543 c -0.273,-3.6914 -0.41,-22.707 -0.41,-41.1719 0,-18.4687 0.293,-34.7578 0.41,-39.40621 l 0.547,-0.54687 13.282,-0.68359 V 1.36719 h -41.602 v 4.64844"
         style="fill:#ffffff;fill-opacity:1;fill-rule:nonzero;stroke:none"
         transform="matrix(0.13333333,0,0,-0.13333333,0,102.41333)" />
      <path
         id="path56"
         d="m 716.703,6.01563 14.629,0.68359 0.547,0.54687 c 0.137,5.07031 0.41,22.71481 0.41,41.18361 0,18.4648 0,33.6601 -0.41,38.4453 l -0.41,0.6836 h -16.27 c -2.89,0 -6.308,-4.9297 -11.914,-21.4844 h -2.734 l 1.094,29.961 h 2.46 l 3.965,-2.3243 h 61.426 l 3.965,2.3243 h 2.461 l 1.094,-29.961 h -2.735 c -5.742,16.6914 -9.023,21.4844 -11.894,21.4844 h -16.289 l -0.41,-0.6836 c -0.137,-3.2891 -0.411,-21.7578 -0.411,-40.2227 0,-18.4687 0.274,-34.4726 0.411,-39.40621 l 0.546,-0.54687 15.059,-0.68359 V 1.36719 h -44.59 v 4.64844"
         style="fill:#ffffff;fill-opacity:1;fill-rule:nonzero;stroke:none"
         transform="matrix(0.13333333,0,0,-0.13333333,0,102.41333)" />
      <path
         id="path57"
         d="m 793.441,6.01563 13.399,0.68359 0.547,0.54687 c 0.136,6.30081 0.429,22.71481 0.429,41.18361 0,18.4648 -0.293,33.9258 -0.429,39.3945 l -0.547,0.543 -13.399,0.6953 v 4.6484 H 853.5 l 5.332,2.3243 h 2.051 l 0.957,-29.961 h -2.735 c -4.921,13.8203 -9.296,20.6563 -11.621,20.8008 l -25.859,1.3672 -0.41,-0.6836 c -0.137,-6.2969 -0.41,-20.8008 -0.41,-36.1133 6.152,0 19.55,0.4024 23.105,0.6836 l 0.567,0.5391 4.902,9.5781 h 2.598 c -0.118,-3.8281 -0.254,-9.707 -0.254,-13.3984 0,-3.5625 0.136,-11.2305 0.254,-15.3321 h -2.598 l -4.902,11.3594 -0.567,0.5469 c -4.238,0.1445 -16.406,0.4062 -23.105,0.4062 0,-17.3789 0.273,-31.3359 0.41,-38.30857 l 0.41,-0.67187 27.91,1.5039 c 2.324,0.125 8.477,5.74224 13.399,21.88284 h 3.144 C 864.301,3.56641 863.891,1.36719 861.566,1.36719 h -68.125 v 4.64844"
         style="fill:#ffffff;fill-opacity:1;fill-rule:nonzero;stroke:none"
         transform="matrix(0.13333333,0,0,-0.13333333,0,102.41333)" />
      <path
         id="path58"
         d="m 898.637,6.01563 14.629,0.68359 0.547,0.54687 c 0.136,5.07031 0.41,22.71481 0.41,41.18361 0,18.4648 0,33.6601 -0.41,38.4453 l -0.391,0.6836 h -16.289 c -2.871,0 -6.289,-4.9297 -11.914,-21.4844 h -2.735 l 1.094,29.961 h 2.481 l 3.945,-2.3243 h 61.426 l 3.984,2.3243 h 2.461 l 1.094,-29.961 h -2.735 c -5.742,16.6914 -9.043,21.4844 -11.894,21.4844 h -16.289 l -0.41,-0.6836 c -0.137,-3.2891 -0.411,-21.7578 -0.411,-40.2227 0,-18.4687 0.274,-34.4726 0.411,-39.40621 l 0.547,-0.54687 15.058,-0.68359 V 1.36719 h -44.609 v 4.64844"
         style="fill:#ffffff;fill-opacity:1;fill-rule:nonzero;stroke:none"
         transform="matrix(0.13333333,0,0,-0.13333333,0,102.41333)" />
    </g>
  </g>
</svg>
