<?xml version="1.0" encoding="UTF-8" standalone="no"?>
<!-- Created with Inkscape (http://www.inkscape.org/) -->

<svg
   version="1.1"
   id="svg1"
   width="136.05333"
   height="101.28"
   viewBox="0 0 136.05333 101.28"
   xmlns="http://www.w3.org/2000/svg"
   xmlns:svg="http://www.w3.org/2000/svg">
  <defs
     id="defs1" />
  <g
     id="g1">
    <g
       id="group-R5">
      <path
         id="path2"
         d="m 507.102,404.066 c -79.614,1.719 -142.969,67.903 -141.25,147.52 0.836,38.574 16.636,74.508 44.5,101.187 27.871,26.684 64.453,40.915 103.007,40.079 79.629,-1.719 142.989,-67.911 141.258,-147.524 -0.828,-38.57 -16.629,-74.512 -44.5,-101.191 -27.859,-26.672 -64.441,-40.91 -103.015,-40.071 z M 402.129,661.359 c -30.156,-28.882 -47.258,-67.765 -48.152,-109.511 -1.875,-86.168 66.714,-157.801 152.878,-159.676 41.739,-0.899 81.329,14.504 111.485,43.379 30.168,28.883 47.265,67.773 48.176,109.523 1.851,86.164 -66.719,157.797 -152.895,159.653 -41.734,0.91 -81.324,-14.493 -111.492,-43.368"
         style="fill:#ffffff;fill-opacity:1;fill-rule:nonzero;stroke:none"
         transform="matrix(0.13333333,0,0,-0.13333333,0,101.28)" />
      <path
         id="path3"
         d="m 505.879,346.891 c -111.152,2.402 -199.617,94.785 -197.195,205.941 1.152,53.832 23.211,104 62.117,141.234 38.887,37.258 89.969,57.125 143.808,55.957 53.829,-1.16 103.996,-23.226 141.25,-62.128 37.246,-38.887 57.11,-89.965 55.95,-143.797 v 0 C 709.395,432.945 617.012,344.477 505.879,346.891 Z M 364.188,700.977 C 323.445,661.957 300.352,609.426 299.121,553.043 296.602,436.617 389.246,339.848 505.664,337.328 622.07,334.809 718.84,427.477 721.348,543.891 v 0 c 1.23,56.382 -19.578,109.879 -58.582,150.621 -39.036,40.738 -91.567,63.847 -147.953,65.07 C 458.43,760.805 404.934,740 364.188,700.977"
         style="fill:#ffffff;fill-opacity:1;fill-rule:nonzero;stroke:none"
         transform="matrix(0.13333333,0,0,-0.13333333,0,101.28)" />
      <path
         id="path4"
         d="m 552.258,422.887 c -78.403,-14.063 -141.223,16.445 -152.715,54.082 -7.434,24.344 3.367,29.633 5.086,47.207 -13.574,-7.235 -16.082,11.597 -4.094,13.207 12.688,1.711 18.36,-11.617 12.199,-29.34 -8.879,-25.469 6.707,-37.297 11.082,-35.98 0.188,1.332 1.789,4.578 2.551,6.019 -10.664,13.633 -6.211,33.516 11.992,35.137 7.411,0.664 6.68,-4.735 1.524,-5.485 -13.953,-2.019 -13.289,-17.605 -7.481,-19.589 1.016,0 2.207,0.273 3.243,1.304 -0.247,3.172 1.953,7.696 5.566,6.797 8.047,-2.027 4.973,-12.277 -0.547,-13.105 -2.07,-6.309 -6.035,-15.106 -5.176,-19.664 0.84,-4.551 4.032,-5.454 6.66,-2.829 1.946,1.942 2.872,6.649 4.122,11.739 -1.321,5.758 1.484,10.129 6.359,8.058 3.379,-1.437 3.758,-6.632 0.43,-10.66 -0.43,-4.945 -2.59,-10.551 -2.121,-14.34 0.48,-3.8 5.656,-3.547 7.531,-1.476 1.863,2.051 3.797,15.457 4.551,18.398 -2.915,2.571 -1.758,10.481 4.207,10.949 7.011,0.563 5.402,-8.992 3.41,-11.402 1.968,-7.457 -1.235,-15.863 0.191,-19.195 1.438,-3.328 6.906,-4.121 9.375,-1.406 2.465,2.746 -0.64,8.492 0.735,15.207 -2.364,5.8 0.378,10.449 3.835,10.722 7.832,0.629 5.61,-6.429 4.165,-11.387 0.398,-5.07 1.257,-11.132 3.027,-15.8 1.133,-3.039 6.148,-3.731 7.82,0.175 1.043,2.43 -1.34,9.344 -1.902,14.227 -3.391,7.898 -0.52,10.051 2.515,10.301 2.883,0.23 6.797,-1.383 6.282,-9.184 1.582,-5.254 2.937,-11.605 4.89,-15.734 0.879,-3.301 4.922,-3.645 6.203,-0.215 1.243,3.418 -1.113,7.449 -3.64,12.957 -5.617,5.453 -0.512,9.66 2.691,9.922 3.196,0.254 8.196,-0.609 7.141,-9.109 1.738,-5.157 2.883,-9.864 4.023,-12.61 1.328,-3.152 5.723,-3.523 7.598,-1.465 1.887,2.09 -1.719,5.723 -2.656,10.196 -4.239,4.117 -3.465,9.746 1.355,10.132 2.485,0.192 7.317,-0.078 6.86,-7.308 1.421,-3.125 1.445,-7.102 3.535,-10.5 2.515,-4.141 6.433,-2.578 7.996,1.144 1.535,3.75 -8.172,14.598 -0.586,15.207 7.598,0.598 8.926,-9.347 11.387,-11.742 2.453,-2.363 4.343,-0.789 5.507,0.5 1.993,2.196 -3.3,8.164 0.391,9.86 7.449,3.418 7.313,-5.094 12.605,-5.184 23.086,-0.359 41.25,37.535 38.555,48.223 -7.722,4.586 -5.008,16.019 1.457,16.148 15.906,0.281 13.66,-22.191 1.602,-48.297 -15.828,-34.207 -54.739,-51.824 -71.336,-54.812"
         style="fill:#ffffff;fill-opacity:1;fill-rule:nonzero;stroke:none"
         transform="matrix(0.13333333,0,0,-0.13333333,0,101.28)" />
      <path
         id="path5"
         d="m 572.813,609.277 c -2.571,-2.464 -10.665,-2.988 -14.817,-0.57 -3.426,2.016 -4.219,17.078 -2.488,21.152 1.726,4.079 19.441,4.243 20.84,1.446 1.406,-2.805 -0.965,-19.563 -3.535,-22.028 z m -31.719,18.629 c 0.566,-2.148 2.676,-11.652 3.164,-17.363 0.273,-2.129 -0.488,-4.719 -1.77,-5.207 -3.179,-1.215 -8.465,-0.922 -11.343,0.184 -3.157,1.21 -1.016,13.781 -12.61,16.035 1.594,1.117 2.434,2.293 2.754,5.05 0.203,1.813 2.434,3.762 5.164,4.094 5.305,0.594 8.613,0.75 10.395,0.688 1.773,-0.059 3.679,-1.285 4.246,-3.481 z m -22.422,-62.433 c -6.77,0.152 -9.285,42.375 -2.293,42.23 6.258,-0.129 6.949,-42.312 2.293,-42.23 z m 67.207,37.507 c -0.266,0.094 -0.32,0.54 -0.266,0.731 3.559,13.695 6.157,19.719 7.453,33.359 0.313,3.262 -2.019,5.903 -4.187,6.446 -8.43,2.105 -12.324,2.031 -15.586,2.281 -0.355,0.023 -1.125,0.18 -1.367,0.648 -0.969,1.985 -2.414,7.946 -2.434,10.965 4.934,10.445 -3.867,14.055 -12.156,13.922 -5.441,0.266 -10.996,-2.238 -11.645,-6.328 -0.742,-7.899 7.993,-10.789 11.118,-11.074 0.527,-1.121 1.804,-6.633 2.019,-8.821 0.02,-0.289 -0.242,-0.605 -0.625,-0.605 -14.015,-0.266 -32.156,-2.719 -41.367,-3.426 -1.316,-0.203 -1.953,0.563 -2.227,1.324 -1.711,4.723 -9.011,27.008 4.688,26.578 8.125,-0.257 14.922,6.391 7.207,11.45 -1.984,1.304 -12.363,2.578 -17.981,1.601 -4.656,-0.804 -6.914,-6.058 -6.328,-10.652 0.918,-7.203 -17.019,-7.941 -22.324,-5.797 -3.785,1.531 -8.445,6.043 -10.066,8.949 -3.45,6.157 -9.414,1.461 -8.321,-1.84 7.434,-22.414 31.145,-18.851 37.344,-19.168 0.305,-0.011 0.84,-0.418 0.867,-0.589 1.516,-8.09 6.34,-16.629 6.321,-19.786 -2.95,-3.277 -1.692,-10.296 2.468,-11.503 -5.086,-4.883 -7.371,-21.938 -6.55,-36.082 1.035,-18.04 8.32,-35.528 19.785,-33.645 14.57,2.391 8.84,36.102 12.375,38.984 1.773,1.426 6.511,1.028 8.242,0.821 0.398,-0.047 0.602,-0.496 0.586,-0.711 -1.152,-13.235 -4.301,-34.457 -5.07,-40.114 -0.789,-5.765 -1.27,-8.753 1.652,-14.082 3.211,-5.871 9.059,-24.527 2.215,-44.273 -0.203,-0.77 -0.852,-1.02 -1.074,-1.074 -6.18,-1.414 -9.485,-3.344 -11.727,-4.871 -2.441,-1.66 -5.063,-5.114 -3.273,-7.2 2.585,-2.363 19.238,-1.437 24.367,6.247 0.125,0.183 0.476,0.918 0.535,1.074 1.777,4.961 4.004,8.578 5.676,11.758 7.672,14.648 8.797,32.644 -1.731,40.777 -2.949,2.269 -5.976,4.445 -3.097,10.144 5.57,11.028 6.156,23.067 6.859,33.243 0.281,4.093 7.09,6.437 9.656,2.574 6.375,-15.113 1.367,-28.129 1.27,-33.496 -0.125,-5.371 1.906,-7.86 2.597,-11.074 4.344,-19.692 2.161,-35.641 -1.777,-55.965 -0.02,-0.434 -0.359,-0.735 -0.762,-0.867 -4.621,-1.547 -7.453,-2.508 -10.343,-4.532 -2.926,-2.047 -4.071,-4.664 -2.801,-6.097 3.867,-4.368 21.355,0.371 22.676,5.375 3.281,12.461 26.843,41.339 10.449,59.785 -7.481,8.418 -7.481,5.039 -7.559,9.289 -0.039,2.039 4.688,13.211 5.867,21.855 1.25,8.996 -4.629,17.559 -3.164,22.528 0.039,0.152 0.41,0.39 0.571,0.363 2.437,-0.469 8.211,-2.012 11.941,-4.137 1.152,-0.648 3.152,-0.137 3.438,4.321 0.312,4.855 -11.985,9.531 -14.434,10.417"
         style="fill:#ffffff;fill-opacity:1;fill-rule:nonzero;stroke:none"
         transform="matrix(0.13333333,0,0,-0.13333333,0,101.28)" />
      <path
         id="path6"
         d="m 437.891,541.273 c -2.383,1.329 -0.528,6.114 2.929,6.649 2.434,0.367 10.657,1.359 13.516,0.113 2.207,-0.957 3.762,-5.594 2.519,-6.957 -2.363,-2.609 -15.546,-1.703 -18.964,0.195 z m -27.5,15.227 c -0.223,2.852 3.625,6.066 6.574,5.449 2.359,-0.504 9.683,-8.226 10.027,-10.039 0.625,-3.324 -2.031,-5.953 -4.25,-6.113 -3.445,-0.254 -12.078,7.594 -12.351,10.703 z m 1.464,15.539 c -1.687,-1.996 -5.46,-3.25 -7.277,-1.805 -2.723,2.188 -3.543,11.11 -1.773,14.907 1.187,2.558 7.41,3.968 8.562,1.05 0.789,-2.011 1.731,-12.675 0.488,-14.152 z m 2.122,25.332 c -3.02,-1.508 -5.825,0.539 -6.125,4.254 -0.325,3.711 8.437,12.785 11.601,11.922 1.543,-0.422 3.867,-3.367 3.613,-5.984 -0.168,-1.829 -7.336,-9.309 -9.089,-10.192 z m 47.339,-32.308 c -3.132,1.367 -11.277,12.089 -8.378,14.996 2.714,2.734 14.164,8.531 16,6.816 7.097,-6.605 -1.458,-24.496 -7.622,-21.812 z m -33.308,2.167 c 0,2.071 10.715,9.348 14.922,7.77 3.398,-1.266 8.718,-14.625 5.84,-15.973 -7.774,-3.668 -20.762,4.789 -20.762,8.203 z m 2.668,32.61 c 1.519,0.316 8.66,-10.738 7.351,-14.836 -1.101,-3.465 -14.257,-8.356 -15.566,-7.035 -4.016,4.004 -0.508,20.027 8.215,21.871 z m 32.332,-2.914 c 0,-3.418 -11.903,-9.113 -14.278,-7.715 -3.476,2.043 -10.566,12.57 -9.089,14.398 5.132,6.364 23.367,-1.336 23.367,-6.683 z m -10.227,23.308 c 0.742,-1.605 1.645,-3.746 -0.039,-5.601 -1.402,-1.543 -14.019,-1.969 -15.906,-1.844 -3.992,0.27 -5.84,4.336 -4.523,6.387 2.394,3.719 19.082,4.043 20.468,1.058 z m 27.766,-16.152 c -0.41,-2.203 -4.043,-3.059 -5.625,-2.875 -1.934,0.219 -10.176,6.668 -10.703,8.926 -0.703,2.957 1.301,4.844 3.191,5.316 5.129,1.285 13.735,-8.191 13.137,-11.367 z m 7.058,-29.84 c -1.863,-1.246 -5.41,-1.465 -6.902,0.797 -1.023,1.555 -1.355,13.004 -0.676,14.703 0.703,1.762 4.551,3.067 6.731,1.867 2.5,-1.371 3.894,-15.339 0.847,-17.367 z m -12.222,-11.433 c 1.941,0.175 5.586,-0.266 6.648,-2.926 1.153,-2.891 -6.836,-11.934 -10.539,-12.988 -2.262,-0.649 -5.652,2.761 -5.027,6.128 0.398,2.18 7.344,9.641 8.918,9.786 z m 21.277,25.613 c -1.328,15.969 -16.211,37.07 -37.969,40.683 -23.625,3.918 -60.339,-5.546 -64.316,-40.261 -4.121,-35.922 23.391,-62.614 56.406,-60.078 35.821,2.742 47.742,37.054 45.879,59.656"
         style="fill:#ffffff;fill-opacity:1;fill-rule:nonzero;stroke:none"
         transform="matrix(0.13333333,0,0,-0.13333333,0,101.28)" />
      <path
         id="path7"
         d="m 445,727.789 -1.035,-8.059 -5.203,-6.222 8.047,-1.028 6.238,-5.218 1.016,8.062 5.214,6.219 -8.054,1.035 -6.223,5.211"
         style="fill:#ffffff;fill-opacity:1;fill-rule:nonzero;stroke:none"
         transform="matrix(0.13333333,0,0,-0.13333333,0,101.28)" />
      <path
         id="path8"
         d="m 595.676,378.832 -6.543,4.805 -8.11,0.488 4.778,6.574 0.508,8.106 6.543,-4.805 8.105,-0.5 -4.797,-6.562 -0.484,-8.106"
         style="fill:#ffffff;fill-opacity:1;fill-rule:nonzero;stroke:none"
         transform="matrix(0.13333333,0,0,-0.13333333,0,101.28)" />
      <path
         id="path9"
         d="m 424.199,379.137 6.563,4.773 8.117,0.461 -4.77,6.59 -0.476,8.117 -6.563,-4.797 -8.093,-0.468 4.753,-6.571 0.469,-8.105"
         style="fill:#ffffff;fill-opacity:1;fill-rule:nonzero;stroke:none"
         transform="matrix(0.13333333,0,0,-0.13333333,0,101.28)" />
      <path
         id="path10"
         d="m 379.363,413.988 8.266,9.688 c 3.75,4.406 9.754,4.094 15.476,-0.789 5.762,-4.914 7.051,-10.813 3.29,-15.215 l -8.258,-9.699 c -1.02,-1.18 -1.059,-1.856 0.301,-2.996 l -2.95,-2.239 -7.968,6.797 1.765,3.235 c 1.36,-1.153 2.016,-1.008 3.02,0.175 l 8.3,9.727 c 1.641,1.933 1.497,4.297 -1.093,6.484 -2.649,2.254 -5.032,2.071 -6.668,0.137 l -8.301,-9.727 c -1.008,-1.183 -1.047,-1.855 0.27,-2.98 l -2.918,-2.254 -7.286,6.211 1.731,3.262 c 1.355,-1.153 2.012,-1.008 3.023,0.183"
         style="fill:#ffffff;fill-opacity:1;fill-rule:nonzero;stroke:none"
         transform="matrix(0.13333333,0,0,-0.13333333,0,101.28)" />
      <path
         id="path11"
         d="m 352.82,446.273 17.473,13.086 3.281,-4.382 -5.469,-18.469 c -0.378,-1.278 -1.375,-3.309 -1.375,-3.309 0,0 1.583,1.465 2.372,2.051 l 7.695,5.77 c 1.211,0.91 1.457,1.543 0.391,2.968 l 3.339,1.563 5.266,-7.02 -2.402,-2.812 c -1.078,1.426 -1.77,1.406 -2.993,0.488 l -12.832,-9.609 c -1.25,-0.938 -1.433,-1.582 -0.359,-3.008 l -3.367,-1.524 -4.731,6.309 4.946,16.797 c 0.418,1.308 1.441,3.359 1.441,3.359 0,0 -1.609,-1.484 -2.508,-2.16 l -6.55,-4.91 c -1.25,-0.938 -1.438,-1.574 -0.375,-3.008 l -3.336,-1.555 -5.293,7.063 2.429,2.762 c 1.075,-1.426 1.707,-1.387 2.957,-0.45"
         style="fill:#ffffff;fill-opacity:1;fill-rule:nonzero;stroke:none"
         transform="matrix(0.13333333,0,0,-0.13333333,0,101.28)" />
      <path
         id="path12"
         d="m 359.543,479.742 4.551,-9.179 -2.91,-2.278 c -0.786,1.594 -1.489,1.695 -2.844,1.028 l -14.363,-7.118 c -1.399,-0.691 -1.704,-1.281 -0.918,-2.882 l -3.567,-0.918 -4.543,9.179 2.903,2.281 c 0.793,-1.601 1.445,-1.726 2.839,-1.031 l 14.368,7.117 c 1.359,0.668 1.699,1.286 0.91,2.883 l 3.574,0.918"
         style="fill:#ffffff;fill-opacity:1;fill-rule:nonzero;stroke:none"
         transform="matrix(0.13333333,0,0,-0.13333333,0,101.28)" />
      <path
         id="path13"
         d="m 326.953,507.207 23.621,-2.129 2.071,-7.051 -18.707,-14.488 c -1.36,-1.051 -1.516,-1.609 -1.055,-3.187 l -3.684,-0.254 -2.89,9.785 3.234,1.793 c 0.457,-1.403 1.023,-1.61 2.215,-0.742 l 9.043,6.804 c 1.504,1.047 4.687,2.539 4.687,2.539 0,0 -3.508,-0.379 -5.351,-0.277 l -11.375,1.105 c -1.528,0.102 -1.848,-0.546 -1.407,-2 l -3.683,-0.296 -2.567,8.711 3.243,1.75 c 0.476,-1.622 0.886,-1.922 2.605,-2.063"
         style="fill:#ffffff;fill-opacity:1;fill-rule:nonzero;stroke:none"
         transform="matrix(0.13333333,0,0,-0.13333333,0,101.28)" />
      <path
         id="path14"
         d="m 344.426,544.199 1.922,-21.164 -3.516,-1.121 c -0.164,1.774 -0.781,2.125 -2.285,1.984 l -15.969,-1.457 c -1.551,-0.144 -2.051,-0.589 -1.883,-2.363 l -3.672,0.469 -1.843,20.226 6.519,0.594 0.844,-2.789 c -2.109,-0.496 -2.539,-1.117 -2.27,-4.183 l 0.442,-4.704 6.601,0.606 -0.39,4.258 c -0.164,1.816 -0.535,2.461 -1.953,2.332 l 0.437,2.992 6.528,0.59 1.023,-2.856 c -1.465,-0.133 -1.719,-0.828 -1.555,-2.648 l 0.395,-4.258 7.183,0.656 -0.593,6.524 c -0.262,2.832 -1.106,3.297 -3.086,3.476 l 0.3,3.024 6.821,-0.188"
         style="fill:#ffffff;fill-opacity:1;fill-rule:nonzero;stroke:none"
         transform="matrix(0.13333333,0,0,-0.13333333,0,101.28)" />
      <path
         id="path15"
         d="m 322.695,569.949 -0.449,-4.07 7.832,-0.875 0.442,3.937 c 0.332,2.969 -1,4.68 -3.391,4.95 -2.395,0.269 -4.102,-1.02 -4.434,-3.942 z m 24.668,11.36 -0.898,-8.102 c -4.309,-3.551 -11.016,0.113 -11.641,-5.418 l -0.359,-3.277 5.223,-0.582 c 1.503,-0.176 2.121,0.117 2.316,1.89 l 3.492,-1.156 -1.121,-10.09 -3.672,-0.394 c 0.195,1.812 -0.332,2.23 -1.848,2.402 l -15.925,1.781 c -1.512,0.168 -2.129,-0.164 -2.325,-1.937 l -3.496,1.203 1.543,13.809 c 0.75,6.675 3.938,10.308 9.024,9.75 3.32,-0.375 5.429,-2.411 6.328,-5.958 1.309,3.301 4.543,3.793 6.492,3.981 2.27,0.191 3.067,0.551 3.305,2.629 l 0.066,0.621 3.496,-1.152"
         style="fill:#ffffff;fill-opacity:1;fill-rule:nonzero;stroke:none"
         transform="matrix(0.13333333,0,0,-0.13333333,0,101.28)" />
      <path
         id="path16"
         d="m 353.047,598.941 c -1.652,-5.132 -4.512,-8.332 -5.93,-9.699 l -5.176,3.258 0.762,2.379 c 3.274,-0.024 5.324,2.586 6.203,5.297 0.664,2.082 0.391,4.554 -1.816,5.265 -1.914,0.614 -3.223,-0.554 -5.36,-4.589 -2.128,-4.137 -5.57,-7.848 -10.871,-6.145 -5.175,1.664 -6.613,7.227 -4.714,13.125 1.445,4.492 3.804,7.617 5.132,8.969 l 4.895,-3.117 -0.75,-2.336 c -2.863,-0.297 -4.555,-2.653 -5.234,-4.77 -0.747,-2.336 -0.227,-4.328 1.523,-4.887 1.687,-0.546 2.93,0.692 4.5,3.696 2.891,5.476 6.008,9.062 11.816,7.191 5.684,-1.832 6.875,-7.875 5.02,-13.637"
         style="fill:#ffffff;fill-opacity:1;fill-rule:nonzero;stroke:none"
         transform="matrix(0.13333333,0,0,-0.13333333,0,101.28)" />
      <path
         id="path17"
         d="m 365.215,628.434 -4.68,-9.118 -3.555,0.973 c 0.813,1.582 0.481,2.199 -0.867,2.899 l -14.265,7.316 c -1.387,0.707 -2.051,0.594 -2.864,-0.992 l -2.863,2.324 4.68,9.109 3.554,-0.965 c -0.808,-1.585 -0.515,-2.187 0.872,-2.902 l 14.253,-7.312 c 1.36,-0.696 2.051,-0.602 2.875,0.988 l 2.86,-2.32"
         style="fill:#ffffff;fill-opacity:1;fill-rule:nonzero;stroke:none"
         transform="matrix(0.13333333,0,0,-0.13333333,0,101.28)" />
      <path
         id="path18"
         d="m 366.477,666.195 c -1.692,0.856 -2.727,0.95 -4.434,-1.386 l -1.582,-2.157 13.785,-10.109 c 1.223,-0.898 1.906,-0.949 2.961,0.484 l 2.461,-2.746 -6.008,-8.187 -3.387,1.484 c 1.082,1.481 0.832,2.106 -0.39,3.004 l -13.797,10.113 -1.582,-2.16 c -1.711,-2.332 -1.313,-3.289 0.016,-4.648 l -2.207,-2.032 -5.047,4.645 14.511,19.797 5.965,-3.391 -1.265,-2.711"
         style="fill:#ffffff;fill-opacity:1;fill-rule:nonzero;stroke:none"
         transform="matrix(0.13333333,0,0,-0.13333333,0,101.28)" />
      <path
         id="path19"
         d="m 384.465,683.766 c -1.36,0.8 -4.152,3.132 -4.152,3.132 0,0 2,-3.125 2.683,-4.5 l 2.942,-6.945 5.148,4.805 z m 23.418,-4.469 -7.363,-6.863 -3.02,2.117 c 0.977,0.914 1.063,1.539 -0.352,2.281 l -1.992,1.016 -7.16,-6.684 0.844,-2.082 c 0.64,-1.531 1.375,-1.336 2.41,-0.367 l 1.902,-3.152 -6.343,-5.93 -3.02,2.125 c 1.172,1.094 1.356,1.683 0.684,3.254 l -6.907,16.277 c -0.437,0.996 -1.089,1.301 -2.363,0.113 l -1.875,3.184 10.59,9.883 3.047,-2.094 c -1.313,-1.219 -1.137,-1.789 -0.117,-2.297 l 15.867,-8.047 c 1.445,-0.777 2.051,-0.703 3.254,0.426 l 1.914,-3.16"
         style="fill:#ffffff;fill-opacity:1;fill-rule:nonzero;stroke:none"
         transform="matrix(0.13333333,0,0,-0.13333333,0,101.28)" />
      <path
         id="path20"
         d="m 423.242,688.742 c -4.582,-2.84 -8.828,-3.429 -10.793,-3.551 l -1.836,5.836 2.121,1.309 c 2.469,-2.129 5.735,-1.473 8.157,0.027 1.851,1.153 3.25,3.219 2.019,5.192 -1.055,1.699 -2.812,1.66 -7.051,-0.032 -4.296,-1.769 -9.328,-2.371 -12.265,2.36 -2.864,4.621 -0.352,9.789 4.914,13.051 4.012,2.488 7.832,3.339 9.715,3.511 l 1.711,-5.547 -2.082,-1.289 c -2.372,1.621 -5.184,0.922 -7.082,-0.25 -2.079,-1.289 -2.965,-3.152 -2,-4.707 0.925,-1.511 2.675,-1.371 5.82,-0.101 5.754,2.304 10.449,3.012 13.664,-2.168 3.141,-5.074 0.137,-10.449 -5.012,-13.641"
         style="fill:#ffffff;fill-opacity:1;fill-rule:nonzero;stroke:none"
         transform="matrix(0.13333333,0,0,-0.13333333,0,101.28)" />
      <path
         id="path21"
         d="m 500.344,725.055 c -1.848,-0.25 -2.168,-0.879 -1.977,-2.336 l 0.285,-2.117 c 0.196,-1.418 0.547,-1.731 1.477,-1.602 l -0.246,-3.492 c -3.899,-0.797 -4.563,-2.504 -10.52,-3.305 -7.984,-1.078 -15.269,1.895 -16.636,12.047 -1.262,9.316 4.148,14.852 12.847,16.023 5.219,0.704 9.231,-0.82 10.949,-1.531 l -0.722,-6.301 -2.383,-0.32 c -1.184,2.762 -3.723,3.586 -6.543,3.207 -4.988,-0.676 -7.258,-3.859 -6.414,-10.078 0.84,-6.27 3.504,-8.695 8.406,-8.039 1.192,0.164 2.637,0.719 3.43,1.269 l -0.461,3.356 c -0.195,1.461 -0.625,1.988 -2.527,1.73 l -0.481,-0.066 0.266,3.68 10.508,1.414 1.238,-3.477 -0.496,-0.062"
         style="fill:#ffffff;fill-opacity:1;fill-rule:nonzero;stroke:none"
         transform="matrix(0.13333333,0,0,-0.13333333,0,101.28)" />
      <path
         id="path22"
         d="m 525.496,736.227 c -4.266,0.339 -6.492,-1.848 -7.039,-8.637 -0.547,-6.793 1.309,-9.313 5.566,-9.656 4.356,-0.352 6.497,1.847 7.04,8.64 0.546,6.789 -1.208,9.301 -5.567,9.653 z m -1.875,-23.266 c -8.25,0.668 -13.766,4.949 -12.937,15.254 0.832,10.301 6.953,13.652 15.214,12.98 8.387,-0.672 13.809,-4.949 12.981,-15.254 -0.832,-10.3 -6.867,-13.656 -15.258,-12.98"
         style="fill:#ffffff;fill-opacity:1;fill-rule:nonzero;stroke:none"
         transform="matrix(0.13333333,0,0,-0.13333333,0,101.28)" />
      <path
         id="path23"
         d="m 568.984,724.781 c 0.196,1.883 -0.089,2.887 -2.89,3.649 l -2.571,0.707 -4.507,-16.504 c -0.395,-1.461 -0.207,-2.11 1.504,-2.582 l -1.672,-3.281 -9.805,2.675 0.187,3.696 c 1.754,-0.485 2.247,-0.02 2.657,1.441 l 4.5,16.496 -2.578,0.711 c -2.793,0.762 -3.536,0.043 -4.336,-1.68 l -2.688,1.332 2.531,6.375 23.68,-6.468 -1.023,-6.785 -2.989,0.218"
         style="fill:#ffffff;fill-opacity:1;fill-rule:nonzero;stroke:none"
         transform="matrix(0.13333333,0,0,-0.13333333,0,101.28)" />
      <path
         id="path24"
         d="m 597.676,689.672 -9.043,4.609 0.918,3.582 c 1.633,-0.832 2.207,-0.476 2.89,0.871 l 2.793,5.481 -9.25,4.707 -2.781,-5.481 c -0.691,-1.347 -0.637,-2.019 0.945,-2.836 l -2.3,-2.867 -9.067,4.606 0.93,3.578 c 1.621,-0.824 2.207,-0.473 2.891,0.879 l 7.285,14.289 c 0.703,1.387 0.625,2.031 -1.004,2.855 l 2.359,2.852 9.043,-4.606 -0.957,-3.558 c -1.59,0.805 -2.144,0.492 -2.859,-0.899 l -2.239,-4.402 9.243,-4.715 2.246,4.41 c 0.711,1.387 0.633,2.028 -0.989,2.856 l 2.344,2.851 9.055,-4.609 -0.957,-3.559 c -1.606,0.813 -2.152,0.493 -2.863,-0.894 l -7.278,-14.289 c -0.679,-1.348 -0.633,-2.028 0.957,-2.832 l -2.312,-2.879"
         style="fill:#ffffff;fill-opacity:1;fill-rule:nonzero;stroke:none"
         transform="matrix(0.13333333,0,0,-0.13333333,0,101.28)" />
      <path
         id="path25"
         d="m 629.863,693.98 c -3.3,2.719 -6.386,2.204 -10.715,-3.062 -4.335,-5.262 -4.246,-8.387 -0.957,-11.102 3.379,-2.773 6.399,-2.199 10.727,3.067 4.324,5.258 4.312,8.328 0.945,11.097 z m -14.836,-18.019 c -6.394,5.266 -8.464,11.93 -1.89,19.914 6.558,7.977 13.504,7.227 19.898,1.957 6.496,-5.348 8.496,-11.957 1.938,-19.93 -6.575,-7.984 -13.442,-7.285 -19.946,-1.941"
         style="fill:#ffffff;fill-opacity:1;fill-rule:nonzero;stroke:none"
         transform="matrix(0.13333333,0,0,-0.13333333,0,101.28)" />
      <path
         id="path26"
         d="m 650.273,664.766 2.063,-2.567 c 1.707,-2.117 3.523,-2.246 5.086,-0.992 1.531,1.231 1.808,2.879 0.051,5.066 l -2.114,2.598 z m -3.437,-2.762 -6.172,-4.977 2.449,-3.05 c 1.875,-2.329 4.016,-2.493 5.879,-0.985 1.848,1.481 2.094,3.738 0.156,6.129 z m -6.504,-11.246 -8.437,10.476 2.304,2.887 c 1.121,-1.387 1.824,-1.332 2.996,-0.387 l 12.493,10.059 c 1.218,0.977 1.375,1.629 0.261,3.016 l 3.313,1.64 7.883,-9.785 c 4.246,-5.273 4.734,-9.793 0.996,-12.809 -1.731,-1.402 -4.563,-1.441 -6.661,-0.39 1.305,-3.402 0.25,-6.434 -2.113,-8.332 -3.98,-3.211 -8.816,-1.61 -13.035,3.625"
         style="fill:#ffffff;fill-opacity:1;fill-rule:nonzero;stroke:none"
         transform="matrix(0.13333333,0,0,-0.13333333,0,101.28)" />
      <path
         id="path27"
         d="m 682.734,622.383 -11.339,-5.789 c -5.157,-2.633 -10.582,-0.051 -14,6.652 -3.442,6.75 -2.375,12.692 2.781,15.324 l 11.347,5.789 c 1.399,0.707 1.692,1.309 0.872,2.899 l 3.582,0.926 4.753,-9.325 -2.871,-2.312 c -0.808,1.582 -1.464,1.699 -2.847,0.988 l -11.391,-5.805 c -2.266,-1.16 -3.016,-3.394 -1.48,-6.41 1.582,-3.093 3.855,-3.836 6.113,-2.679 l 11.387,5.812 c 1.394,0.707 1.687,1.309 0.894,2.856 l 3.559,0.964 4.351,-8.527 -2.847,-2.359 c -0.801,1.586 -1.465,1.703 -2.864,0.996"
         style="fill:#ffffff;fill-opacity:1;fill-rule:nonzero;stroke:none"
         transform="matrix(0.13333333,0,0,-0.13333333,0,101.28)" />
      <path
         id="path28"
         d="m 692.805,596.508 -1.059,3.961 -7.613,-2.016 1.012,-3.836 c 0.761,-2.883 2.628,-4.004 4.945,-3.387 2.32,0.618 3.457,2.43 2.715,5.278 z m -18.899,-19.512 -2.09,7.883 c 2.727,4.867 10.313,3.875 8.899,9.258 l -0.852,3.187 -5.078,-1.344 c -1.465,-0.382 -1.933,-0.878 -1.472,-2.601 l -3.696,-0.191 -2.597,9.82 3.293,1.699 c 0.468,-1.766 1.125,-1.965 2.585,-1.578 l 15.5,4.101 c 1.465,0.387 1.922,0.922 1.465,2.641 l 3.692,0.149 3.554,-13.434 c 1.719,-6.504 0.059,-11.043 -4.89,-12.348 -3.235,-0.859 -5.93,0.274 -8.047,3.262 -0.031,-3.555 -2.871,-5.184 -4.621,-6.059 -2.039,-1 -2.656,-1.625 -2.129,-3.648 l 0.168,-0.605 -3.684,-0.192"
         style="fill:#ffffff;fill-opacity:1;fill-rule:nonzero;stroke:none"
         transform="matrix(0.13333333,0,0,-0.13333333,0,101.28)" />
      <path
         id="path29"
         d="m 687.02,543.281 c -0.094,1.867 -0.692,2.242 -2.157,2.164 l -2.136,-0.101 c -1.426,-0.071 -1.77,-0.403 -1.719,-1.336 l -3.457,0.543 c -0.461,3.945 -2.113,4.758 -2.406,10.762 -0.399,8.05 3.175,15.054 13.41,15.554 9.383,0.465 14.453,-5.394 14.883,-14.156 0.253,-5.25 -1.602,-9.133 -2.461,-10.777 l -6.211,1.25 -0.118,2.402 c 2.852,0.945 3.887,3.402 3.75,6.25 -0.253,5.027 -3.23,7.559 -9.503,7.246 -6.317,-0.309 -8.961,-2.762 -8.719,-7.695 0.058,-1.203 0.488,-2.699 0.976,-3.524 l 3.379,0.168 c 1.477,0.074 2.032,0.457 1.934,2.367 l -0.02,0.497 3.645,-0.582 0.515,-10.586 -3.562,-0.938 -0.023,0.492"
         style="fill:#ffffff;fill-opacity:1;fill-rule:nonzero;stroke:none"
         transform="matrix(0.13333333,0,0,-0.13333333,0,101.28)" />
      <path
         id="path30"
         d="m 672.148,512.355 3.211,21 3.684,0.254 c -0.266,-1.769 0.242,-2.25 1.75,-2.476 l 15.848,-2.426 c 1.543,-0.234 2.129,0.082 2.39,1.844 l 3.449,-1.34 -3.066,-20.074 -6.476,0.984 -0.133,2.91 c 2.156,-0.019 2.722,0.481 3.191,3.524 l 0.715,4.66 -6.566,1.008 -0.641,-4.231 c -0.274,-1.804 -0.07,-2.512 1.348,-2.726 l -1.157,-2.793 -6.472,0.984 -0.301,3.023 c 1.453,-0.226 1.851,0.391 2.137,2.192 l 0.644,4.226 -7.14,1.09 -0.985,-6.468 c -0.422,-2.817 0.281,-3.473 2.168,-4.118 l -1.023,-2.867 -6.575,1.82"
         style="fill:#ffffff;fill-opacity:1;fill-rule:nonzero;stroke:none"
         transform="matrix(0.13333333,0,0,-0.13333333,0,101.28)" />
      <path
         id="path31"
         d="m 681.063,470.707 -20.426,7.707 1.929,5.125 18.52,5.301 c 1.285,0.375 3.523,0.625 3.523,0.625 0,0 -2.082,0.547 -3,0.89 l -9.004,3.395 c -1.414,0.531 -2.078,0.406 -2.71,-1.266 l -3.11,1.985 3.098,8.207 3.664,-0.524 c -0.625,-1.664 -0.227,-2.246 1.18,-2.773 l 15.007,-5.656 c 1.457,-0.559 2.102,-0.368 2.727,1.3 l 3.098,-2.031 -2.786,-7.371 -16.816,-4.844 c -1.328,-0.355 -3.602,-0.589 -3.602,-0.589 0,0 2.118,-0.563 3.165,-0.954 l 7.664,-2.894 c 1.457,-0.555 2.097,-0.363 2.722,1.301 l 3.11,-1.981 -3.11,-8.254 -3.64,0.567 c 0.625,1.672 0.254,2.187 -1.203,2.734"
         style="fill:#ffffff;fill-opacity:1;fill-rule:nonzero;stroke:none"
         transform="matrix(0.13333333,0,0,-0.13333333,0,101.28)" />
      <path
         id="path32"
         d="m 649.961,460.574 c 2.883,4.559 6.434,6.942 8.152,7.91 l 4.211,-4.441 -1.34,-2.109 c -3.164,0.836 -5.796,-1.176 -7.324,-3.59 -1.172,-1.844 -1.512,-4.317 0.449,-5.555 1.692,-1.074 3.254,-0.266 6.329,3.113 3.097,3.473 7.355,6.211 12.062,3.239 4.59,-2.907 4.602,-8.649 1.301,-13.883 -2.531,-3.992 -5.598,-6.426 -7.219,-7.403 l -3.953,4.239 1.309,2.07 c 2.839,-0.43 5.066,1.438 6.25,3.32 1.304,2.063 1.296,4.133 -0.247,5.11 -1.503,0.945 -3.015,0.058 -5.293,-2.461 -4.16,-4.582 -8.078,-7.278 -13.23,-4.016 -5.051,3.184 -4.688,9.336 -1.457,14.457"
         style="fill:#ffffff;fill-opacity:1;fill-rule:nonzero;stroke:none"
         transform="matrix(0.13333333,0,0,-0.13333333,0,101.28)" />
      <path
         id="path33"
         d="m 630.527,434.691 6.809,7.657 3.199,-1.825 c -1.18,-1.339 -1.015,-2.023 0.11,-3.027 l 11.992,-10.656 c 1.164,-1.035 1.828,-1.094 3.008,0.234 l 2.199,-2.957 -6.809,-7.656 -3.203,1.824 c 1.191,1.34 1.055,1.992 -0.105,3.028 l -11.985,10.656 c -1.133,1.004 -1.836,1.094 -3.015,-0.235 l -2.2,2.957"
         style="fill:#ffffff;fill-opacity:1;fill-rule:nonzero;stroke:none"
         transform="matrix(0.13333333,0,0,-0.13333333,0,101.28)" />
      <path
         id="path34"
         d="m 613.484,419.691 c 4.204,3.372 8.352,4.465 10.293,4.825 l 2.524,-5.575 -1.946,-1.554 c -2.714,1.816 -5.878,0.773 -8.093,-1.016 -1.711,-1.355 -2.844,-3.582 -1.391,-5.391 1.25,-1.562 2.988,-1.308 7.004,0.879 4.055,2.278 8.977,3.477 12.449,-0.867 3.403,-4.238 1.535,-9.679 -3.301,-13.547 -3.679,-2.949 -7.371,-4.257 -9.226,-4.656 l -2.363,5.301 1.914,1.535 c 2.547,-1.328 5.261,-0.293 7.004,1.102 1.902,1.523 2.566,3.488 1.421,4.914 -1.113,1.386 -2.832,1.035 -5.796,-0.606 -5.43,-2.98 -10,-4.25 -13.821,0.516 -3.738,4.648 -1.394,10.351 3.328,14.14"
         style="fill:#ffffff;fill-opacity:1;fill-rule:nonzero;stroke:none"
         transform="matrix(0.13333333,0,0,-0.13333333,0,101.28)" />
      <path
         id="path35"
         d="m 465.73,359.34 -13.66,3.918 0.285,3.719 1.754,-0.508 c 1.797,-0.516 2.375,-0.125 2.786,1.328 l 3.984,13.926 c -0.977,-0.516 -2.617,-0.743 -5.399,-0.262 l 1.153,4.023 c 2.976,-0.109 4.785,0.215 7.847,2.989 l 5.571,-1.594 -6.047,-21.113 c -0.41,-1.453 -0.051,-2.118 1.711,-2.618 l 1.758,-0.496 -1.743,-3.312"
         style="fill:#ffffff;fill-opacity:1;fill-rule:nonzero;stroke:none"
         transform="matrix(0.13333333,0,0,-0.13333333,0,101.28)" />
      <path
         id="path36"
         d="m 494.094,379.02 c -2.492,0.234 -4.231,-0.637 -4.387,-2.364 -0.164,-1.769 1.34,-3.301 3.723,-4.648 2.5,0.887 4.265,2.109 4.441,3.887 0.156,1.718 -1.426,2.898 -3.777,3.125 z m -1.074,-11.399 c -3.059,-1.101 -5.305,-2.637 -5.52,-4.891 -0.187,-2.003 1.758,-3.652 4.68,-3.937 2.84,-0.262 5.144,0.949 5.34,2.949 0.214,2.305 -1.758,4.231 -4.5,5.879 z m -1.223,-12.949 c -7.539,0.703 -12.051,4.172 -11.621,8.742 0.371,3.945 3.73,5.867 7.383,7.051 -2.969,1.707 -5.457,3.816 -5.164,6.973 0.378,4.031 5.078,6.367 12.085,5.703 6.692,-0.625 11.047,-3.809 10.665,-7.852 -0.29,-3.144 -3.082,-4.766 -6.329,-5.891 3.364,-1.835 6.301,-4.343 5.93,-8.3 -0.43,-4.559 -5.637,-7.118 -12.949,-6.426"
         style="fill:#ffffff;fill-opacity:1;fill-rule:nonzero;stroke:none"
         transform="matrix(0.13333333,0,0,-0.13333333,0,101.28)" />
      <path
         id="path37"
         d="m 526.426,378.754 c -3.281,-0.313 -4.981,-2.676 -4.656,-6.043 0.308,-3.145 2.183,-5.07 5.339,-4.766 2.879,0.274 5.371,2.305 5.02,5.946 -0.227,2.394 -1.797,5.234 -5.703,4.863 z m -0.086,-24.168 c -1.82,-0.176 -5.293,0.105 -6.485,0.848 l -0.382,3.906 c 1.34,-0.371 3.269,-0.535 5.007,-0.371 4.875,0.469 7.676,2.929 8.293,7.773 -0.886,-1.472 -3.437,-2.879 -6.14,-3.144 -6.699,-0.633 -10.891,2.902 -11.418,8.488 -0.559,5.711 3.574,10.234 10.801,10.918 8.379,0.809 12.754,-4.219 13.457,-11.457 0.832,-8.641 -2.942,-15.984 -13.133,-16.961"
         style="fill:#ffffff;fill-opacity:1;fill-rule:nonzero;stroke:none"
         transform="matrix(0.13333333,0,0,-0.13333333,0,101.28)" />
      <path
         id="path38"
         d="m 569.395,363.227 -13.731,-3.622 -1.672,3.34 1.77,0.457 c 1.804,0.481 2.097,1.114 1.718,2.578 l -3.703,13.997 c -0.574,-0.938 -1.875,-1.965 -4.5,-2.989 l -1.074,4.051 c 2.617,1.426 4.016,2.617 5.227,6.582 l 5.593,1.477 5.606,-21.231 c 0.391,-1.465 1.047,-1.847 2.805,-1.379 l 1.765,0.469 0.196,-3.73"
         style="fill:#ffffff;fill-opacity:1;fill-rule:nonzero;stroke:none"
         transform="matrix(0.13333333,0,0,-0.13333333,0,101.28)" />
      <path
         id="path39"
         d="m 13.0469,187.324 c 0,4.922 0.125,7.891 0.125,20.684 0,10.195 -0.125,18.34 -0.2617,29.965 L 12.4023,238.492 0,239.137 v 4.394 h 36.9453 v -4.394 l -10.4726,-0.645 -0.5157,-0.519 c -0.125,-9.692 -0.2539,-30.61 -0.2539,-50.121 0,-16.27 3.75,-27.266 20.9297,-27.266 17.957,0 23.125,10.469 23.125,29.707 0,16.797 -0.2539,35.02 -0.5195,47.68 l -0.5195,0.519 -11.8829,0.645 v 4.394 h 34.2383 v -4.394 l -12.6679,-0.645 -0.504,-0.519 c -0.3906,-13.832 -0.3906,-32.817 -0.2656,-48.832 0.1289,-22.227 -10.332,-34.102 -32.0429,-34.102 -21.3086,0 -32.5469,10.977 -32.5469,32.285"
         style="fill:#ffffff;fill-opacity:1;fill-rule:nonzero;stroke:none"
         transform="matrix(0.13333333,0,0,-0.13333333,0,101.28)" />
      <path
         id="path40"
         d="m 102.063,160.723 12.664,0.644 0.515,0.508 c 0.383,13.828 0.383,24.043 0.383,36.953 0,12.91 0,20.02 -0.383,39.145 l -0.515,0.519 -12.664,0.645 v 4.394 h 24.675 c 15.762,-22.086 33.723,-47.926 46.641,-66.402 h 0.254 c -0.254,24.805 -0.52,48.184 -0.774,60.844 l -0.515,0.519 -11.883,0.645 v 4.394 h 34.227 v -4.394 l -12.657,-0.645 -0.515,-0.519 c -0.395,-13.832 -0.395,-24.028 -0.395,-56.45 v -25.839 h -6.324 c -16.02,22.734 -35.141,49.472 -51.418,72.734 h -0.254 c 0.129,-30.234 0.508,-53.613 0.77,-66.543 l 0.519,-0.508 11.887,-0.644 v -4.395 h -34.238 v 4.395"
         style="fill:#ffffff;fill-opacity:1;fill-rule:nonzero;stroke:none"
         transform="matrix(0.13333333,0,0,-0.13333333,0,101.28)" />
      <path
         id="path41"
         d="m 205.684,160.723 12.656,0.644 0.515,0.508 c 0.254,4.004 0.391,21.445 0.391,38.887 0,17.441 -0.137,32.812 -0.391,37.211 l -0.515,0.519 -12.656,0.645 v 4.394 h 39.265 v -4.394 l -12.527,-0.645 -0.52,-0.519 c -0.254,-3.481 -0.386,-21.45 -0.386,-38.891 0,-17.441 0.261,-32.812 0.386,-37.207 l 0.52,-0.508 12.527,-0.644 v -4.395 h -39.265 v 4.395"
         style="fill:#ffffff;fill-opacity:1;fill-rule:nonzero;stroke:none"
         transform="matrix(0.13333333,0,0,-0.13333333,0,101.28)" />
      <path
         id="path42"
         d="m 261.758,238.746 -7.766,0.391 v 4.394 h 33.86 v -4.394 l -11.504,-0.52 -0.52,-0.515 c 7.238,-18.727 15.766,-41.344 24.301,-63.18 h 0.254 c 6.328,17.578 17.305,48.848 21.57,63.305 l -0.383,0.39 -10.465,0.52 v 4.394 h 28.551 v -4.394 l -7.5,-0.391 c -6.718,-17.047 -22.215,-57.223 -32.422,-83.707 h -3.496 c -13.3,32.285 -24.8,60.449 -34.48,83.707"
         style="fill:#ffffff;fill-opacity:1;fill-rule:nonzero;stroke:none"
         transform="matrix(0.13333333,0,0,-0.13333333,0,101.28)" />
      <path
         id="path43"
         d="m 348.699,160.723 12.668,0.644 0.52,0.508 c 0.125,5.957 0.379,21.445 0.379,38.887 0,17.441 -0.254,32.051 -0.379,37.211 l -0.52,0.519 -12.668,0.645 v 4.394 h 56.723 l 5.039,2.196 h 1.934 l 0.906,-28.286 h -2.586 c -4.652,13.047 -8.781,19.493 -10.981,19.629 l -24.421,1.293 -0.379,-0.648 c -0.129,-5.938 -0.391,-19.629 -0.391,-34.102 5.809,0 18.477,0.391 21.836,0.645 l 0.516,0.508 4.648,9.043 h 2.449 c -0.125,-3.614 -0.254,-9.161 -0.254,-12.657 0,-3.359 0.129,-10.586 0.254,-14.472 h -2.449 l -4.648,10.722 -0.516,0.528 c -4.008,0.117 -15.512,0.39 -21.836,0.39 0,-16.425 0.262,-29.59 0.391,-36.172 l 0.379,-0.664 26.359,1.426 c 2.195,0.137 8.008,5.43 12.664,20.684 h 2.969 c -1.68,-25.196 -2.071,-27.266 -4.27,-27.266 h -64.336 v 4.395"
         style="fill:#ffffff;fill-opacity:1;fill-rule:nonzero;stroke:none"
         transform="matrix(0.13333333,0,0,-0.13333333,0,101.28)" />
      <path
         id="path44"
         d="m 487.59,221.055 c 0,7.09 -3.098,12.402 -8.918,15.117 -3.223,1.543 -7.227,2.445 -15.371,2.445 h -4.258 l -0.391,-0.39 c -0.129,-5.551 -0.261,-22.485 -0.39,-37.582 22.48,0.644 29.328,7.871 29.328,20.41 z m -55.422,-60.332 12.922,0.644 0.515,0.508 c 0.125,3.75 0.391,21.445 0.391,38.887 0,17.441 -0.266,31.386 -0.391,37.211 l -0.515,0.519 -12.922,0.645 v 4.394 c 11.633,0 24.031,0.254 30.613,0.254 10.207,0 16.157,-0.644 20.93,-2.07 12.402,-3.742 17.832,-11.754 17.832,-20.543 0,-12.774 -8.652,-18.848 -19.246,-22.207 v -0.274 c 3.355,-3.867 9.168,-14.453 16.656,-27.636 3.235,-5.684 6.34,-9.942 10.598,-10.215 l 2.844,-0.117 v -4.395 H 493.02 l -0.52,0.508 c -4.785,9.707 -8.145,17.578 -16.277,32.051 -1.68,2.968 -3.235,5.41 -5.168,7.617 -4.649,-0.645 -9.043,-0.899 -12.793,-0.899 -0.125,-15.371 0.261,-29.843 0.39,-33.73 l 0.52,-0.508 11.883,-0.644 v -4.395 h -38.887 v 4.395"
         style="fill:#ffffff;fill-opacity:1;fill-rule:nonzero;stroke:none"
         transform="matrix(0.13333333,0,0,-0.13333333,0,101.28)" />
      <path
         id="path45"
         d="m 528.547,183.594 h 2.976 c 4.524,-16.406 11.883,-23.262 20.926,-23.262 10.586,0 17.309,7.109 17.309,16.406 0,22.481 -39.66,16.797 -39.66,45.215 0,12.012 9.433,22.992 25.84,22.992 8.398,0 15.117,-2.586 16.535,-2.968 l 3.875,3.75 h 2.453 l 0.777,-28.286 h -2.715 c -5.425,15.743 -12.527,22.211 -21.316,22.211 -7.617,0 -14.207,-5.043 -14.207,-13.558 0,-21.582 40.301,-18.223 40.301,-45.489 0,-13.046 -9.817,-25.566 -29.961,-25.566 -5.567,0 -12.149,1.289 -17.832,5.039 l -2.586,-5.039 h -2.715 v 28.555"
         style="fill:#ffffff;fill-opacity:1;fill-rule:nonzero;stroke:none"
         transform="matrix(0.13333333,0,0,-0.13333333,0,101.28)" />
      <path
         id="path46"
         d="m 598.445,160.723 12.668,0.644 0.508,0.508 c 0.266,4.004 0.391,21.445 0.391,38.887 0,17.441 -0.125,32.812 -0.391,37.211 l -0.508,0.519 -12.668,0.645 v 4.394 h 39.282 v -4.394 l -12.539,-0.645 -0.508,-0.519 c -0.266,-3.481 -0.395,-21.45 -0.395,-38.891 0,-17.441 0.258,-32.812 0.395,-37.207 l 0.508,-0.508 12.539,-0.644 v -4.395 h -39.282 v 4.395"
         style="fill:#ffffff;fill-opacity:1;fill-rule:nonzero;stroke:none"
         transform="matrix(0.13333333,0,0,-0.13333333,0,101.28)" />
      <path
         id="path47"
         d="m 666.531,160.723 13.821,0.644 0.515,0.508 c 0.141,4.785 0.395,21.445 0.395,38.887 0,17.441 0,31.777 -0.395,36.308 l -0.379,0.645 h -15.383 c -2.703,0 -5.933,-4.649 -11.226,-20.274 h -2.59 l 1.035,28.286 h 2.324 l 3.75,-2.196 h 57.997 l 3.75,2.196 h 2.328 l 1.035,-28.286 h -2.59 c -5.422,15.743 -8.523,20.274 -11.238,20.274 h -15.371 l -0.391,-0.645 c -0.129,-3.105 -0.383,-20.547 -0.383,-37.988 0,-17.441 0.254,-32.539 0.383,-37.207 l 0.516,-0.508 14.218,-0.644 v -4.395 h -42.121 v 4.395"
         style="fill:#ffffff;fill-opacity:1;fill-rule:nonzero;stroke:none"
         transform="matrix(0.13333333,0,0,-0.13333333,0,101.28)" />
      <path
         id="path48"
         d="m 758.391,160.723 12.793,0.644 0.515,0.508 c 0.266,9.707 0.391,15.645 0.391,33.34 -10.723,16.269 -22.481,35 -28.289,43.531 l -8.664,0.391 v 4.394 h 32.949 v -4.394 l -9.309,-0.52 -0.507,-0.515 c 6.32,-10.602 15.238,-25.446 22.089,-36.051 h 0.254 c 7.114,12.539 15.371,27.793 19.516,36.176 l -0.395,0.39 -9.043,0.52 v 4.394 h 27.903 v -4.394 l -7.879,-0.391 c -7.492,-10.973 -17.309,-28.297 -26.352,-43.141 0,-17.832 0.254,-22.089 0.383,-33.73 l 0.52,-0.508 13.172,-0.644 v -4.395 h -40.047 v 4.395"
         style="fill:#ffffff;fill-opacity:1;fill-rule:nonzero;stroke:none"
         transform="matrix(0.13333333,0,0,-0.13333333,0,101.28)" />
      <path
         id="path49"
         d="m 926.73,200 c 0,26.094 -10.207,39.137 -26.613,39.137 -16.406,0 -26.863,-13.043 -26.863,-39.137 0,-26.113 10.203,-39.16 26.609,-39.16 16.407,0 26.867,13.047 26.867,39.16 z m -67.433,-1.309 c 0,29.336 17.961,46.254 40.82,46.254 25.711,0 40.567,-18.09 40.567,-43.656 0,-29.336 -17.957,-46.25 -40.821,-46.25 -25.715,0 -40.566,18.086 -40.566,43.652"
         style="fill:#ffffff;fill-opacity:1;fill-rule:nonzero;stroke:none"
         transform="matrix(0.13333333,0,0,-0.13333333,0,101.28)" />
      <path
         id="path50"
         d="m 955.559,160.723 12.656,0.761 0.515,0.528 c 0.125,4.531 0.391,21.308 0.391,38.75 0,17.441 -0.266,32.695 -0.391,37.211 l -0.515,0.519 -12.656,0.645 v 4.394 h 56.971 l 5.03,2.196 h 1.94 l 0.9,-28.286 h -2.58 c -4.65,13.047 -8.79,19.629 -10.98,19.747 l -24.672,1.175 -0.391,-0.648 c -0.129,-3.75 -0.39,-19.629 -0.39,-34.102 5.808,0 18.476,0.391 21.583,0.645 l 0.52,0.508 4.64,9.043 h 2.46 c -0.13,-3.614 -0.26,-9.161 -0.26,-12.657 0,-3.359 0.13,-11.504 0.26,-15.371 h -2.46 l -4.91,11.621 -0.51,0.528 c -3.757,0.117 -14.983,0.39 -21.323,0.39 0,-16.425 0,-31.015 0.39,-36.308 l 0.52,-0.528 13.953,-0.761 v -4.395 h -40.691 v 4.395"
         style="fill:#ffffff;fill-opacity:1;fill-rule:nonzero;stroke:none"
         transform="matrix(0.13333333,0,0,-0.13333333,0,101.28)" />
      <path
         id="path51"
         d="m 42.1172,44.9609 c 0,28.2813 19.1133,44.9414 44.3086,44.9414 9.5586,0 15.1172,-1.5429 20.0192,-2.9687 l 4.27,3.75 h 1.93 l 0.91,-28.2813 H 110.84 C 104.387,79.707 95.207,84.6094 85.6563,84.6094 70.6641,84.6094 56.0664,73.3789 56.0664,46.25 c 0,-21.1914 10.5938,-40.44922 32.5547,-40.44922 6.332,0 13.1759,1.81641 13.1759,3.88672 0,4.3945 0.129,16.1523 -0.254,26.0938 l -0.52,0.5078 -12.6636,0.664 v 4.375 h 36.1716 v -4.375 l -9.297,-0.664 -0.515,-0.5078 C 114.465,27.5195 114.324,18.2031 114.465,8.26172 112.91,5.03906 100.508,0 87.4609,0 61.1016,0 42.1172,16.4063 42.1172,44.9609"
         style="fill:#ffffff;fill-opacity:1;fill-rule:nonzero;stroke:none"
         transform="matrix(0.13333333,0,0,-0.13333333,0,101.28)" />
      <path
         id="path52"
         d="m 208.137,44.9609 c 0,26.0938 -10.215,39.1407 -26.621,39.1407 -16.411,0 -26.868,-13.0469 -26.868,-39.1407 0,-26.1132 10.207,-39.16012 26.614,-39.16012 16.402,0 26.875,13.04692 26.875,39.16012 z m -67.446,-1.3086 c 0,29.336 17.961,46.25 40.825,46.25 25.711,0 40.562,-18.0859 40.562,-43.6523 C 222.078,16.9141 204.121,0 181.262,0 155.547,0 140.691,18.0859 140.691,43.6523"
         style="fill:#ffffff;fill-opacity:1;fill-rule:nonzero;stroke:none"
         transform="matrix(0.13333333,0,0,-0.13333333,0,101.28)" />
      <path
         id="path53"
         d="m 254.773,5.68359 13.821,0.64454 0.527,0.50781 c 0.125,4.78516 0.383,21.44536 0.383,38.88676 0,17.4414 0,31.7773 -0.383,36.3086 l -0.391,0.6445 h -15.378 c -2.707,0 -5.942,-4.6485 -11.235,-20.2735 h -2.586 l 1.035,28.2813 h 2.325 l 3.75,-2.1875 h 58 l 3.75,2.1875 h 2.324 l 1.031,-28.2813 h -2.574 c -5.434,15.7422 -8.535,20.2735 -11.242,20.2735 h -15.379 l -0.383,-0.6445 c -0.137,-3.1055 -0.391,-20.5469 -0.391,-37.9883 0,-17.4414 0.254,-32.5586 0.391,-37.20706 l 0.52,-0.50781 14.199,-0.64454 V 1.28906 h -42.114 v 4.39453"
         style="fill:#ffffff;fill-opacity:1;fill-rule:nonzero;stroke:none"
         transform="matrix(0.13333333,0,0,-0.13333333,0,101.28)" />
      <path
         id="path54"
         d="m 325.32,5.68359 12.66,0.64454 0.516,0.50781 c 0.125,4.92186 0.391,21.44536 0.391,38.88676 0,17.4414 -0.266,33.2031 -0.391,37.207 l -0.516,0.5273 -12.66,0.6446 v 4.3945 h 37.461 v -4.3945 l -10.718,-0.6446 -0.52,-0.5273 C 351.289,78.9258 351.16,63.6914 351.16,49.2188 h 42.758 c 0.125,16.0156 -0.266,30.7421 -0.395,33.7109 l -0.515,0.5273 -10.723,0.6446 v 4.3945 h 37.473 V 84.1016 L 407.09,83.457 406.582,82.9297 c -0.137,-3.8672 -0.391,-21.4453 -0.391,-38.8867 0,-17.4414 0.254,-31.5235 0.391,-37.20706 L 407.09,6.32813 419.758,5.68359 V 1.28906 h -37.473 v 4.39453 l 10.723,0.64454 0.515,0.50781 c 0.129,4.39456 0.395,20.41016 0.395,35.66406 H 351.16 c 0,-16.4062 0.129,-28.3008 0.383,-35.66406 l 0.52,-0.50781 10.718,-0.64454 V 1.28906 H 325.32 v 4.39453"
         style="fill:#ffffff;fill-opacity:1;fill-rule:nonzero;stroke:none"
         transform="matrix(0.13333333,0,0,-0.13333333,0,101.28)" />
      <path
         id="path55"
         d="m 430.742,5.68359 12.664,0.64454 0.512,0.50781 c 0.137,5.95706 0.391,21.44536 0.391,38.88676 0,17.4414 -0.254,32.0507 -0.391,37.207 l -0.512,0.5273 -12.664,0.6446 v 4.3945 h 56.719 l 5.039,2.1875 h 1.934 l 0.898,-28.2813 h -2.578 c -4.649,13.0469 -8.789,19.4922 -10.977,19.629 l -24.422,1.289 -0.382,-0.6445 c -0.137,-5.9375 -0.391,-19.6289 -0.391,-34.1016 5.813,0 18.477,0.3906 21.836,0.6446 l 0.52,0.5078 4.648,9.0429 h 2.449 c -0.129,-3.6132 -0.265,-9.1601 -0.265,-12.6562 0,-3.3594 0.136,-10.586 0.265,-14.4727 h -2.449 l -4.648,10.7227 -0.52,0.5273 c -4.004,0.1172 -15.508,0.3711 -21.836,0.3711 0,-16.3867 0.254,-29.5703 0.391,-36.15232 l 0.382,-0.66407 26.356,1.42578 c 2.195,0.13672 8.008,5.42971 12.656,20.68361 h 2.981 C 497.668,3.35938 497.273,1.28906 495.078,1.28906 h -64.336 v 4.39453"
         style="fill:#ffffff;fill-opacity:1;fill-rule:nonzero;stroke:none"
         transform="matrix(0.13333333,0,0,-0.13333333,0,101.28)" />
      <path
         id="path56"
         d="m 514.211,5.68359 12.652,0.64454 0.52,0.50781 c 0.39,13.82816 0.39,24.02346 0.39,36.95316 0,12.9101 0,20.0195 -0.39,39.1406 l -0.52,0.5273 -12.652,0.6446 v 4.3945 h 24.668 C 554.648,66.4063 572.598,40.5664 585.52,22.0898 h 0.261 C 585.52,46.8945 585.266,70.2734 585,82.9297 l -0.52,0.5273 -11.882,0.6446 v 4.3945 h 34.238 V 84.1016 L 594.172,83.457 593.66,82.9297 C 593.27,69.1016 593.27,58.9063 593.27,26.4844 V 0.644531 h -6.329 C 570.918,23.3789 551.797,50.1172 535.527,73.3789 h -0.261 c 0.125,-30.2344 0.515,-53.6133 0.769,-66.54296 l 0.52,-0.50781 11.883,-0.64454 V 1.28906 h -34.227 v 4.39453"
         style="fill:#ffffff;fill-opacity:1;fill-rule:nonzero;stroke:none"
         transform="matrix(0.13333333,0,0,-0.13333333,0,101.28)" />
      <path
         id="path57"
         d="m 676.992,26.0938 c 0,12.2656 -8.398,17.0507 -19.765,17.0507 H 643.66 c -0.125,-16.4062 0.266,-29.4531 0.395,-36.30856 l 0.64,-0.50781 c 2.453,-0.13672 4.778,-0.13672 6.328,-0.13672 17.446,0 25.969,7.24609 25.969,19.90239 z m -25.183,22.7343 c 15.234,0 19.121,7.2266 19.121,17.1875 0,6.836 -2.461,12.0117 -7.754,14.7266 -3.363,1.7969 -8.149,2.832 -15.246,2.832 -0.657,0 -2.071,0 -3.36,-0.1172 l -0.515,-0.6445 c -0.129,-6.7187 -0.52,-19.375 -0.395,-33.9844 z M 617.82,5.68359 l 12.668,0.64454 0.52,0.50781 c 0.125,4.53126 0.379,21.44536 0.379,38.88676 0,17.4414 -0.254,31.5234 -0.379,37.207 l -0.52,0.5273 -12.668,0.6446 v 4.3945 c 9.563,0 20.547,0.2539 28.164,0.2539 9.438,0 16.672,-0.7812 22.485,-2.5977 10.203,-3.2226 16.402,-9.8046 16.402,-19.2382 0,-11.1133 -7.359,-17.6953 -15.762,-19.7657 v -0.2539 c 13.704,-0.6445 21.836,-8.6523 21.836,-19.1211 0,-17.5781 -15.757,-26.73824 -40.816,-26.73824 -8.399,0 -21.965,0.2539 -32.309,0.2539 v 4.39453"
         style="fill:#ffffff;fill-opacity:1;fill-rule:nonzero;stroke:none"
         transform="matrix(0.13333333,0,0,-0.13333333,0,101.28)" />
      <path
         id="path58"
         d="m 718.855,32.2852 c 0,4.9218 0.129,7.8906 0.129,20.6836 0,10.1953 -0.129,18.3398 -0.254,29.9609 l -0.515,0.5273 -12.402,0.6446 v 4.3945 h 36.953 v -4.3945 l -10.469,-0.6446 -0.52,-0.5273 c -0.129,-9.6875 -0.261,-30.6055 -0.261,-50.1172 0,-16.2891 3.75,-27.26562 20.933,-27.26562 17.949,0 23.125,10.46872 23.125,29.70702 0,16.7969 -0.261,35.0195 -0.515,47.6758 l -0.516,0.5273 -11.887,0.6446 v 4.3945 h 34.231 V 84.1016 L 784.23,83.457 783.711,82.9297 C 783.32,69.1016 783.32,50.1172 783.457,34.1016 783.586,11.875 773.113,0 751.418,0 730.098,0 718.855,10.9766 718.855,32.2852"
         style="fill:#ffffff;fill-opacity:1;fill-rule:nonzero;stroke:none"
         transform="matrix(0.13333333,0,0,-0.13333333,0,101.28)" />
      <path
         id="path59"
         d="m 863.301,66.0156 c 0,7.0899 -3.106,12.4024 -8.914,15.0977 -3.235,1.5625 -7.239,2.4609 -15.371,2.4609 h -4.27 l -0.391,-0.3906 c -0.125,-5.5469 -0.253,-22.4805 -0.378,-37.5781 22.476,0.6445 29.324,7.8711 29.324,20.4101 z m -55.43,-60.33201 12.922,0.64454 0.516,0.50781 c 0.136,3.74996 0.39,21.44536 0.39,38.88676 0,17.4414 -0.254,31.4062 -0.39,37.207 l -0.516,0.5273 -12.922,0.6446 v 4.3945 c 11.633,0 24.031,0.2539 30.625,0.2539 10.203,0 16.145,-0.6445 20.93,-2.0703 12.398,-3.75 17.832,-11.7578 17.832,-20.5469 0,-12.793 -8.664,-18.8476 -19.262,-22.207 v -0.2735 c 3.359,-3.8671 9.172,-14.4531 16.672,-27.6367 3.23,-5.6836 6.328,-9.94138 10.598,-10.21482 l 2.839,-0.11719 V 1.28906 h -19.382 l -0.52,0.50782 c -4.773,9.68752 -8.137,17.57812 -16.277,32.05082 -1.672,2.9687 -3.227,5.4296 -5.168,7.6171 -4.649,-0.6445 -9.043,-0.8984 -12.781,-0.8984 -0.129,-15.3711 0.253,-29.8437 0.378,-33.73046 l 0.516,-0.50781 11.887,-0.64454 V 1.28906 h -38.887 v 4.39453"
         style="fill:#ffffff;fill-opacity:1;fill-rule:nonzero;stroke:none"
         transform="matrix(0.13333333,0,0,-0.13333333,0,101.28)" />
      <path
         id="path60"
         d="m 901.023,44.9609 c 0,28.2813 19.122,44.9414 44.321,44.9414 9.558,0 15.117,-1.5429 20.015,-2.9687 l 4.27,3.75 h 1.934 l 0.91,-28.2813 h -2.715 c -6.465,17.3047 -15.625,22.2071 -25.188,22.2071 -14.992,0 -29.59,-11.2305 -29.59,-38.3594 0,-21.1914 10.594,-40.44922 32.559,-40.44922 6.328,0 13.176,1.81641 13.176,3.88672 0,4.3945 0.125,16.1523 -0.254,26.0938 l -0.52,0.5078 -12.668,0.664 v 4.375 h 36.172 v -4.375 l -9.297,-0.664 -0.515,-0.5078 C 973.379,27.5195 973.242,18.2031 973.379,8.26172 971.824,5.03906 959.426,0 946.379,0 920.02,0 901.023,16.4063 901.023,44.9609"
         style="fill:#ffffff;fill-opacity:1;fill-rule:nonzero;stroke:none"
         transform="matrix(0.13333333,0,0,-0.13333333,0,101.28)" />
    </g>
  </g>
</svg>
