<?xml version="1.0" encoding="UTF-8"?>
<!-- Created with Inkscape (http://www.inkscape.org/) -->
<svg width="54.448mm" height="20mm" version="1.1" viewBox="0 0 54.448 20" xml:space="preserve"
  xmlns="http://www.w3.org/2000/svg">
  <g transform="translate(-113.89 -79.6)">
    <g transform="matrix(.26458 0 0 .26458 69.464 38.846)" style="shape-inside:url(#rect827-6-7-9);white-space:pre"
      aria-label="Mink">
      <path
        d="m174.03 182.27 13.12 25.227 13.12-25.227 3.2 29.547h2.9333l-4.32-38.773-14.933 28.693-14.933-28.693-4.32 38.773h2.9333z" />
      <path
        d="m213.17 176.19c0 1.0667 0.85334 1.9733 1.9733 1.9733s1.9733-0.90667 1.9733-1.9733c0-1.0667-0.85333-1.9733-1.9733-1.9733s-1.9733 0.90667-1.9733 1.9733zm0.58667 11.093v24.533h2.7733v-24.533z" />
      <path
        d="m241.28 196.03v15.787h2.7733v-16.107c0-5.44-2.7733-8.96-7.8933-8.96-3.6267 0-6.4533 2.08-7.84 5.6533v-5.12h-2.7733v24.533h2.7733v-14.933c0-4.2133 3.04-7.52 7.2-7.52 3.9467 0 5.76 2.5067 5.76 6.6667z" />
      <path
        d="m265.49 187.29-10.507 9.2267v-26.293h-2.7733v41.6h2.7733v-13.227l11.573 13.227h3.52l-12.587-14.4 11.573-10.133z" />
    </g>
    <path
      d="m150.9 94.642c0.21323-0.10515 0.60108-0.48847 0.79534-0.78607 0.19491-0.29857 0.23586-0.49148 0.15145-0.71345-0.0194-0.0513-0.0413-0.18374-0.0485-0.29452l-0.0131-0.20139 0.2578-0.0907c0.14179-0.0499 0.35338-0.14546 0.47022-0.21231 0.11684-0.0668 0.17448-0.0804 0.26127-0.12154 0.36357-0.17235 0.5418-0.23924 1.0869-0.52502 0.13914-0.073 0.35734-0.21651 0.4849-0.31904 0.12756-0.10252 0.35411-0.27268 0.50346-0.37813 0.32234-0.22761 0.98252-0.87495 1.2261-1.2023 0.24282-0.3263 0.50574-0.76889 0.73253-1.2333 0.1463-0.29954 0.22724-0.53923 0.33033-0.97823 0.16636-0.70846 0.20391-1.2723 0.1382-2.075-0.0513-0.62579-0.13879-0.93538-0.5304-1.8752-0.19644-0.47142-0.68466-1.3658-0.97742-1.7906-0.50312-0.72995-1.1053-0.84208-1.3787-0.25662-0.0733 0.15689-0.12244 0.21251-0.11984 0.67137 0 0-0.0107 0.32021 0.0422 0.55505 0.0528 0.23483 0.38958 0.83403 0.38958 0.83403 0.58119 1.2441 0.67647 1.5505 0.74476 2.3945 0.0329 0.4067 0.0277 0.54486-0.0369 0.9698-0.0916 0.60287-0.16315 0.75922-0.7864 1.7175-0.7616 1.1709-1.1194 1.4552-1.6991 1.3498-0.42285-0.0768-0.74264-0.30856-0.97107-0.70355-0.0883-0.15274-0.24128-0.36498-0.3399-0.47166-0.0986-0.10668-0.24875-0.27972-0.33363-0.38455-0.14714-0.18171-0.66904-0.64827-1.2406-1.1089-0.14556-0.11735-0.36428-0.30064-0.48603-0.40732s-0.37641-0.29812-0.56589-0.42544c-0.48434-0.32542-0.71811-0.52114-1.1319-0.94766-0.35259-0.36343-0.72805-0.8677-0.9009-1.21-0.25638-0.50763-0.60234-1.0139-0.93572-1.369-0.59318-0.63204-1.1108-0.97382-1.7748-1.172-0.87974-0.2625-1.9237-0.6985-2.4147-1.0084-0.13417-0.08466-0.14552-0.10484-0.12374-0.21944 0.0132-0.06948 0.0477-0.17332 0.0767-0.23093 0.0793-0.15777 0.0637-0.33504-0.0458-0.52202-0.1216-0.20748-0.28808-0.29949-0.54157-0.29933-0.25859 1.47e-4 -0.45294 0.10646-0.72549 0.39674-0.19866 0.2116-0.24995 0.24372-0.50948 0.31913-0.15873 0.04611-0.33856 0.12748-0.39963 0.18078-0.061 0.05328-0.22551 0.1889-0.36542 0.30132-0.31743 0.25504-0.61151 0.57817-0.68812 0.75607-0.0321 0.07463-0.0602 0.24187-0.0623 0.37156-6e-3 0.31635 0.14194 0.5638 0.44197 0.74369 0.25324 0.15185 0.32767 0.15453 0.76587 0.02752 0.18701-0.0542 0.4273-0.09904 0.53395-0.09963 0.20881-0.0018 0.55385 0.10456 0.81179 0.24873 0.19029 0.10636 0.75928 0.56682 0.75928 0.61443 0 0.02954-0.10985 0.03929-0.55279 0.04887-0.0694 0.0018-0.37328-0.01169-0.67544-0.02936-0.47577-0.02779-0.56754-0.02347-0.68496 0.0323-0.28901 0.13716-0.25459 0.4628 0.0801 0.75738 0.33586 0.29562 0.83952 0.46777 1.6004 0.54696 0.22402 0.02337 0.48585 0.07224 0.58185 0.10872 0.24033 0.09129 0.59065 0.32107 0.87069 0.57109 0.12918 0.11531 0.44301 0.34942 0.69743 0.52026 0.27232 0.18286 0.50142 0.36779 0.55705 0.44963 0.11399 0.16776 0.48112 0.94212 0.54928 1.1586 0.047 0.14925 0.30826 0.74102 0.55356 1.254 0.0646 0.13495 0.22175 0.38616 0.34936 0.55827 0.38389 0.51777 0.43189 0.62437 0.3437 0.76368-0.0277 0.0437-0.0901 0.0188-0.31659-0.12607-0.33175-0.21225-0.47873-0.2313-0.6205-0.0804-0.0795 0.0847-0.0936 0.13706-0.0909 0.33943 2e-3 0.13769 0.0293 0.28873 0.0646 0.35568 0.0687 0.13024 0.26081 0.31784 0.43658 0.42647 0.0641 0.0396 0.23136 0.16455 0.37188 0.27776 0.14051 0.11322 0.35538 0.25159 0.47748 0.30749 0.27267 0.12483 0.43082 0.10605 0.63675-0.0757 0.0788-0.0694 0.21062-0.16508 0.29309-0.2125l0.14992-0.0862 0.33951 0.28877c0.6318 0.53734 1.2971 0.90281 1.9143 1.0515 0.22299 0.0537 0.42917 0.0977 0.45817 0.0978 0.0305 3e-5 0.056 0.0473 0.0606 0.11172 4e-3 0.0615 0.0634 0.23605 0.13136 0.38809 0.11804 0.26397 0.12163 0.28634 0.0795 0.49604-0.0878 0.43739-0.0332 0.74903 0.1544 0.88043 0.11167 0.0782 0.17467 0.0784 0.33219 7.5e-4z"
      fill="#f0581a" stroke-width=".73306" />
    <g transform="matrix(.26458 0 0 .26458 -13.809 8.6219)" fill="#1a1a1a"
      style="shape-inside:url(#rect10965-6-2);white-space:pre" aria-label="Språkbanken's data plattform">
      <path
        d="m484.26 336.42-1.4667 1.0333c0.76667 1.6 2.4167 2.9833 4.4667 2.9833 1.9833 0 3.8833-1.3 3.8833-3.4833 0-2.0333-1.5667-3.0167-2.9667-3.5-1.8833-0.65001-2.65-1.2333-2.65-2.1333 0-0.66667 0.5-1.25 1.5833-1.25 1.1833 0 1.8833 0.76666 2.3667 1.6333l1.5833-0.9c-0.6-1.2167-1.85-2.5-3.9167-2.5-2.1 0-3.6667 1.2833-3.6667 3.15 0 2.1667 1.95 3 3.1 3.4167 1.4833 0.55 2.4833 0.95 2.4833 2.2333 0 0.93334-0.71667 1.5667-1.8 1.5667-1.3167 0-2.25-0.88333-3-2.25z" />
      <path
        d="m494.74 343.86v-4.95c0.55 0.95 1.4667 1.4833 2.6167 1.4833 2 0 3.7333-1.4667 3.7333-4.0333s-1.7333-4.05-3.7333-4.05c-1.15 0-2.0667 0.55-2.6167 1.5v-1.2833h-1.8167v11.333zm4.4833-7.5c0 1.5333-1.05 2.4-2.3 2.4-1.05 0-2.1833-0.85001-2.1833-2.4 0-1.5667 1.1333-2.4 2.1833-2.4 1.25 0 2.3 0.86666 2.3 2.4z" />
      <path
        d="m506.87 334.44 0.88333-1.5167c-0.35-0.4-0.86667-0.58333-1.4167-0.58333-0.65 0-1.3 0.41666-1.75 1.1v-0.91667h-1.7833v7.6667h1.7833v-4.3167c0-1.1 0.36667-1.8333 1.2667-1.8333 0.43333 0 0.68333 0.13333 1.0167 0.4z" />
      <path
        d="m510.31 329.56c0 1.0667 0.86667 1.7833 1.85 1.7833s1.8667-0.71666 1.8667-1.7833c0-1.05-0.88334-1.7667-1.8667-1.7667-0.98334 0-1.85 0.71667-1.85 1.7667zm1.0333 0c0-0.51667 0.4-0.85 0.81667-0.85s0.81667 0.33333 0.81667 0.85c0 0.53333-0.4 0.85-0.81667 0.85s-0.81667-0.31667-0.81667-0.85zm-1.6 4.9833c0.36666-0.23333 1.2333-0.73333 2.3333-0.73333 0.83334 0 1.5167 0.4 1.5167 1.1167v1.0667c-0.46666-0.26666-1.15-0.51666-2-0.51666-1.9 0-3.2833 0.91666-3.2833 2.6167 0 1.4167 1.0667 2.2667 2.6833 2.2667 1.15 0 2.15-0.45 2.6-1.2667v1.1h1.7667v-5.4667c0-1.5167-1.3167-2.3833-3.2-2.3833-1.3833 0-2.4667 0.5-3.15 0.91667zm0.38333 3.3833c0-0.8 0.58333-1.3 1.7333-1.3 0.68333 0 1.2167 0.13333 1.7333 0.38333v0.13334c0 1.35-0.88333 1.85-2.05 1.85-0.9 0-1.4167-0.35-1.4167-1.0667z" />
      <path
        d="m521.99 332.52-2.8167 2.7v-8.0334h-1.7667v13h1.7667v-3.8833l3.1667 3.8833h2.2l-3.65-4.5 3.3167-3.1667z" />
      <path
        d="m533.82 336.36c0-2.5333-1.7333-4-3.7333-4-1.1167 0-2.05 0.51667-2.6167 1.45v-6.6167h-1.8167v13h1.8167v-1.2833c0.56667 0.93333 1.5 1.45 2.6167 1.45 2 0 3.7333-1.4833 3.7333-4zm-1.8667 0c0 1.5333-1.05 2.4333-2.3 2.4333-1.05 0-2.1833-0.88334-2.1833-2.4333 0-1.5667 1.1333-2.4333 2.1833-2.4333 1.25 0 2.3 0.9 2.3 2.4333z" />
      <path
        d="m536.11 334.52c0.33334-0.25 1.25-0.71666 2.3333-0.71666 0.95 0 1.6333 0.33333 1.6333 1.2667v0.93333c-0.48333-0.26667-1.2167-0.53333-2.2167-0.53333-1.9 0-3 0.95-3 2.4333 0 1.5667 1.2333 2.45 2.6833 2.45 0.98334 0 2.05-0.4 2.5333-1.2167v1.05h1.7667v-5.4667c0-1.5167-1.35-2.3833-3.2167-2.3833-1.4333 0-2.55 0.5-3.25 0.91667zm0.56667 3.2833c0-0.71666 0.48334-1.15 1.6167-1.15 0.65 0 1.2333 0.11667 1.7833 0.36667v0.11667c0 1.1667-0.9 1.8667-1.9667 1.8667-0.83334 0-1.4333-0.43334-1.4333-1.2z" />
      <path
        d="m548.87 335.52v4.6667h1.85v-4.8833c0-1.8333-0.93334-2.95-2.6667-2.95-1.05 0-1.8167 0.45-2.3 1.35v-1.1833h-1.8167v7.6667h1.8167v-4.6667c0-1.05 0.66667-1.7167 1.7-1.7167 0.96667 0 1.4167 0.6 1.4167 1.7167z" />
      <path
        d="m557.54 332.52-2.8167 2.7v-8.0334h-1.7667v13h1.7667v-3.8833l3.1667 3.8833h2.2l-3.65-4.5 3.3167-3.1667z" />
      <path
        d="m564.36 340.36c1.7667 0 3.0333-0.68334 3.85-2.0833l-1.5667-0.61667c-0.48334 0.81667-1.2167 1.2167-2.2 1.2167-1.25 0-2.0333-0.75-2.15-2.1h5.9667c0-0.0833 0.0167-0.3 0.0167-0.5 0-2.45-1.4167-3.9167-3.8333-3.9167-2.4333 0-4 1.5833-4 4 0 2.4 1.55 4 3.9167 4zm0.0667-6.6334c1.0833 0 1.8 0.71667 1.8833 1.8h-3.9667c0.21667-1.1667 0.93333-1.7833 2.0833-1.8z" />
      <path
        d="m574.94 335.52v4.6667h1.85v-4.8833c0-1.8333-0.93333-2.95-2.6667-2.95-1.05 0-1.8167 0.45-2.3 1.35v-1.1833h-1.8167v7.6667h1.8167v-4.6667c0-1.05 0.66667-1.7167 1.7-1.7167 0.96667 0 1.4167 0.6 1.4167 1.7167z" />
      <path d="m579.44 328.52-0.78334 5.1167h1.2l1.6-5.1167z" />
      <path
        d="m582.18 337.66-1.05 1.0667c0.66667 0.86667 1.8333 1.7 3.4333 1.7 1.6667 0 2.7333-0.95001 2.7333-2.4 0-1.3833-1.0667-1.9-2.35-2.4167-0.93334-0.36667-1.6667-0.63333-1.6667-1.2 0-0.43334 0.38333-0.65 0.9-0.65 0.75 0 1.5 0.43333 2 1.0167l1-1.0667c-0.63333-0.76667-1.7167-1.35-2.9667-1.35-1.4167 0-2.6333 0.7-2.6333 2.0833s1.1333 1.9667 2.1833 2.3333c1.0167 0.36667 1.7167 0.66667 1.7167 1.35 0 0.5-0.38333 0.81667-1.0333 0.81667-0.78333 0-1.5167-0.45-2.2667-1.2833z" />
      <path
        d="m593.31 336.36c0 2.5167 1.7333 4 3.7333 4 1.1167 0 2.05-0.51667 2.6167-1.45v1.2833h1.8167v-13h-1.8167v6.6167c-0.56666-0.93334-1.5-1.45-2.6167-1.45-2 0-3.7333 1.4667-3.7333 4zm1.8667 0c0-1.5333 1.05-2.4333 2.3-2.4333 1.05 0 2.1833 0.86667 2.1833 2.4333 0 1.55-1.1333 2.4333-2.1833 2.4333-1.25 0-2.3-0.9-2.3-2.4333z" />
      <path
        d="m604.28 334.52c0.33333-0.25 1.25-0.71666 2.3333-0.71666 0.95 0 1.6333 0.33333 1.6333 1.2667v0.93333c-0.48333-0.26667-1.2167-0.53333-2.2167-0.53333-1.9 0-3 0.95-3 2.4333 0 1.5667 1.2333 2.45 2.6833 2.45 0.98333 0 2.05-0.4 2.5333-1.2167v1.05h1.7667v-5.4667c0-1.5167-1.35-2.3833-3.2167-2.3833-1.4333 0-2.55 0.5-3.25 0.91667zm0.56667 3.2833c0-0.71666 0.48333-1.15 1.6167-1.15 0.65 0 1.2333 0.11667 1.7833 0.36667v0.11667c0 1.1667-0.9 1.8667-1.9667 1.8667-0.83333 0-1.4333-0.43334-1.4333-1.2z" />
      <path d="m611.04 332.52v1.5833h1.3v6.0833h1.7667v-6.0833h1.2833v-1.5833h-1.2833v-2.6667h-1.7667v2.6667z" />
      <path
        d="m617.19 334.52c0.33333-0.25 1.25-0.71666 2.3333-0.71666 0.95 0 1.6333 0.33333 1.6333 1.2667v0.93333c-0.48333-0.26667-1.2167-0.53333-2.2167-0.53333-1.9 0-3 0.95-3 2.4333 0 1.5667 1.2333 2.45 2.6833 2.45 0.98334 0 2.05-0.4 2.5333-1.2167v1.05h1.7667v-5.4667c0-1.5167-1.35-2.3833-3.2167-2.3833-1.4333 0-2.55 0.5-3.25 0.91667zm0.56667 3.2833c0-0.71666 0.48333-1.15 1.6167-1.15 0.65 0 1.2333 0.11667 1.7833 0.36667v0.11667c0 1.1667-0.9 1.8667-1.9667 1.8667-0.83333 0-1.4333-0.43334-1.4333-1.2z" />
      <path
        d="m631.78 343.86v-4.95c0.55 0.95 1.4667 1.4833 2.6167 1.4833 2 0 3.7333-1.4667 3.7333-4.0333s-1.7333-4.05-3.7333-4.05c-1.15 0-2.0667 0.55-2.6167 1.5v-1.2833h-1.8167v11.333zm4.4833-7.5c0 1.5333-1.05 2.4-2.3 2.4-1.05 0-2.1833-0.85001-2.1833-2.4 0-1.5667 1.1333-2.4 2.1833-2.4 1.25 0 2.3 0.86666 2.3 2.4z" />
      <path d="m639.84 327.19v13h1.8167v-13z" />
      <path
        d="m644.51 334.52c0.33334-0.25 1.25-0.71666 2.3333-0.71666 0.95 0 1.6333 0.33333 1.6333 1.2667v0.93333c-0.48334-0.26667-1.2167-0.53333-2.2167-0.53333-1.9 0-3 0.95-3 2.4333 0 1.5667 1.2333 2.45 2.6833 2.45 0.98334 0 2.05-0.4 2.5333-1.2167v1.05h1.7667v-5.4667c0-1.5167-1.35-2.3833-3.2167-2.3833-1.4333 0-2.55 0.5-3.25 0.91667zm0.56667 3.2833c0-0.71666 0.48334-1.15 1.6167-1.15 0.65 0 1.2333 0.11667 1.7833 0.36667v0.11667c0 1.1667-0.9 1.8667-1.9667 1.8667-0.83334 0-1.4333-0.43334-1.4333-1.2z" />
      <path d="m651.28 332.52v1.5833h1.3v6.0833h1.7667v-6.0833h1.2833v-1.5833h-1.2833v-2.6667h-1.7667v2.6667z" />

      <path
        d="m656.08 332.52v1.5833h0.83334v6.0833h1.7833v-6.0833h1.7833v-1.5833h-1.7833v-2.4833c0-0.96667 0.3-1.35 0.8-1.35 0.26667 0 0.56667 0.0833 0.80001 0.43333l0.83333-1.4c-0.28333-0.33333-0.83333-0.75-1.7167-0.75-1.6167 0-2.5 0.93333-2.5 2.7167v2.8333z" />
      <path
        d="m661.28 336.36c0 2.35 1.7833 4 4.1333 4s4.1333-1.65 4.1333-4c0-2.3667-1.7833-4-4.1333-4s-4.1333 1.6333-4.1333 4zm1.85 0c0-1.4333 0.98334-2.4167 2.2833-2.4167 1.2833 0 2.2833 0.98334 2.2833 2.4167 0 1.4333-1 2.4167-2.2833 2.4167-1.3 0-2.2833-0.98333-2.2833-2.4167z" />
      <path
        d="m675.33 334.44 0.88333-1.5167c-0.35-0.4-0.86666-0.58333-1.4167-0.58333-0.65 0-1.3 0.41666-1.75 1.1v-0.91667h-1.7833v7.6667h1.7833v-4.3167c0-1.1 0.36667-1.8333 1.2667-1.8333 0.43333 0 0.68333 0.13333 1.0167 0.4z" />
      <path
        d="m688.43 335.31c0-1.8667-0.8-2.95-2.45-2.95-1.0333 0-1.85 0.46667-2.4 1.3667-0.33333-0.88333-1.0833-1.3667-2.2-1.3667-1 0-1.7167 0.43334-2.1667 1.2833v-1.1167h-1.7667v7.6667h1.7667v-4.6667c0-1.1 0.60001-1.7167 1.5167-1.7167 0.88334 0 1.2833 0.55 1.2833 1.7167v4.6667h1.8v-4.6667c0-1.1 0.6-1.7167 1.5333-1.7167 0.86667 0 1.2667 0.55 1.2667 1.7167v4.6667h1.8167z" />
    </g>
  </g>
</svg>